<?xml version="1.0" encoding="utf-8"?>
<!-- Generator: Adobe Illustrator 18.0.0, SVG Export Plug-In . SVG Version: 6.00 Build 0)  -->
<!DOCTYPE svg PUBLIC "-//W3C//DTD SVG 1.1//EN" "http://www.w3.org/Graphics/SVG/1.1/DTD/svg11.dtd">
<svg version="1.1" id="Layer_1" xmlns="http://www.w3.org/2000/svg" xmlns:xlink="http://www.w3.org/1999/xlink" x="0px" y="0px"
	 viewBox="0 0 612 792" enable-background="new 0 0 612 792" xml:space="preserve">
<g>
	<g>
		<path fill="#D9D9D9" d="M325.8,792.6c-15.3,0-30.6,0-45.9,0c0.1-0.7-0.4-1.1-0.7-1.6c-4.1-5-8.2-10.1-12.5-15
			c-2-2.2-2.8-4.5-2.8-7.5c0.3-38.9,0.4-77.8,0.6-116.7c0.1-29.3,0.2-58.7,0.3-88c0-1.8,0.3-3.4,1.3-4.9
			c7.6-12.1,15.2-24.2,22.7-36.4c1.2-1.9,1.9-2.1,3.3-0.3c10.2,13.3,20.5,26.6,30.8,39.8c13.1,16.8,26.2,33.6,39.3,50.4
			c1.5,2,3.6,3.7,2.7,7.4c-10.7,46.5-21.2,93-31.7,139.5C330.7,770.5,328.3,781.5,325.8,792.6z"/>
		<path fill="#D9D9D9" d="M280.5,0.6c14.9,0,29.8,0,44.8,0c0.2,0.5,0.4,0.9,0.5,1.4c8.5,37.2,17,74.4,25.5,111.6
			c4.5,19.5,8.9,39.1,13.5,58.6c0.6,2.5,0.2,4.3-1.4,6c-1.9,2.2-3.6,4.4-5.3,6.7c-6.6,8.4-13.1,16.8-19.7,25.1
			c-7.8,10-15.7,20-23.5,30c-7.6,9.7-15.2,19.4-22.7,29.1c-1.3,1.7-2.1,1.6-3.3-0.4c-7.3-11.8-14.7-23.5-22.2-35.3
			c-1.2-1.8-1.7-3.7-1.7-5.9c-0.1-32.5-0.4-65-0.5-97.4c-0.1-35.4-0.2-70.9-0.3-106.3c0-1.8,0.4-3.3,1.6-4.7c2.7-3,5.4-6,7.8-9.3
			C275.7,6.8,278.9,4.4,280.5,0.6z"/>
		<path fill="#6E477A" d="M280.5,0.6c-1.6,3.8-4.8,6.2-7.1,9.3c-2.4,3.3-5.1,6.3-7.8,9.3c-1.2,1.4-1.6,2.8-1.6,4.7
			c0.1,35.4,0.2,70.9,0.3,106.3c0.1,32.5,0.4,65,0.5,97.4c0,2.3,0.6,4.1,1.7,5.9c7.4,11.7,14.9,23.4,22.2,35.3
			c1.2,1.9,2,2.1,3.3,0.4c7.6-9.7,15.2-19.4,22.7-29.1c7.8-10,15.7-20,23.5-30c6.6-8.4,13.1-16.8,19.7-25.1c1.8-2.3,3.5-4.5,5.3-6.7
			c1.5-1.8,1.9-3.6,1.4-6c-4.6-19.5-9-39.1-13.5-58.6c-8.5-37.2-17-74.4-25.5-111.6c-0.1-0.5-0.3-0.9-0.5-1.4c0.8,0,1.5,0,2.3,0
			c3.3,14.7,6.6,29.4,9.9,44.1c9.5,41.5,19,83,28.5,124.5c0.2,1.1-0.1,2.8,1.3,3c1.2,0.1,1.7-1.4,2.6-2.2c0.2-0.2,0.3-0.5,0.5-0.7
			c4.8-6,9.5-12,14.3-18c0.2,0.5,0.7,0.8,1.2,0.8c-0.1,0.3-0.1,0.6-0.3,0.8c-5.4,6.9-10.7,13.9-16.3,20.6c-1.5,1.8-1.6,3.4-1.1,5.5
			c5.8,25.3,11.6,50.7,17.4,76.1c7.9,34.5,15.8,69,23.6,103.6c0.5,2.4,1.3,2.7,3.3,1.7c8.5-4.5,17.1-9,25.7-13.4
			c11.7-6.1,23.4-12.2,35.1-18.3c0,0.6,0,1.2,0,1.9c-5.7,3.1-11.4,6.2-17.1,9.3c-14.5,7.6-28.9,15.2-43.4,22.7
			c-1.4,0.7-2.4,1.3-1.9,3.4c2.1,8.8,4,17.8,6.1,26.6c0.4,1.7,0.4,3.1,0,4.7c-2,8.9-3.9,17.8-6.1,26.6c-0.6,2.3,0.1,3.2,1.9,4.2
			c11.6,6.1,23.2,12.2,34.8,18.3c12.5,6.6,25,13.2,37.5,19.9c-0.2,0.6-0.4,1.2-0.6,1.7c-0.5-0.2-1.1-0.4-1.6-0.7
			c-20.7-10.9-41.3-21.9-62-32.8c-2.9-1.5-5.7-3.1-8.6-4.6c-1.6-0.8-2.6-0.9-3.2,1.6c-3.3,15.3-6.8,30.6-10.3,45.9
			c-10.1,44.9-20.3,89.7-30.5,134.5c-0.7,3.1-0.6,5.4,1.7,7.7c1.5,1.5,2.7,3.4,4.1,5.1c13.4,17.2,26.7,34.5,40.1,51.7
			c9.6,12.4,19.2,24.8,28.8,37.2c-0.8,0.1-1,0.8-0.9,1.5c-5.6-7.1-11.2-14.3-16.8-21.4c-9.4-12.1-18.9-24.3-28.3-36.4
			c-9.3-12-18.7-23.9-28-35.9c-0.5-0.6-0.9-1.6-1.7-1.5c-1,0.2-0.9,1.4-1.1,2.2c-2.3,10-4.5,19.9-6.8,29.9
			c-9.5,42.2-19.1,84.3-28.5,126.5c-1,4.6-2.6,9.1-2.7,13.9c-0.8,0-1.5,0-2.3,0c2.4-11.1,4.8-22.2,7.3-33.2
			c10.5-46.5,21-93,31.7-139.5c0.8-3.7-1.2-5.4-2.7-7.4c-13-16.9-26.2-33.6-39.3-50.4c-10.3-13.2-20.6-26.5-30.8-39.8
			c-1.4-1.8-2.1-1.7-3.3,0.3c-7.5,12.2-15.1,24.3-22.7,36.4c-0.9,1.5-1.3,3.1-1.3,4.9c-0.1,29.3-0.1,58.7-0.3,88
			c-0.2,38.9-0.3,77.8-0.6,116.7c0,3.1,0.8,5.3,2.8,7.5c4.3,4.8,8.3,10,12.5,15c0.4,0.4,0.9,0.8,0.7,1.6c-0.8,0-1.5,0-2.3,0
			c-3.6-5.5-8-10.3-12.3-15.2c-0.3-0.4-0.8-0.7-1.2-0.5c-0.8,0.3-0.6,1.2-0.6,1.8c-0.1,4.6-0.1,9.3-0.1,13.9c-0.6,0-1.1,0-1.7,0
			c0-5.8,0-11.6,0-17.4c0-1.8-0.5-3.3-1.7-4.6c-7.2-8.6-14.5-17.1-21.6-25.8c-12.5-15.2-25-30.5-37.5-45.7c-0.5-0.6-1-1.3-1.9-1
			c-0.4,0.9,0,1.8,0.3,2.6c6.4,21.5,12.8,42.9,19.2,64.4c2.7,9.2,5.8,18.2,8.1,27.6c-0.6,0-1.1,0-1.7,0c-3.2-10.5-6.3-21.1-9.5-31.6
			c-5.8-19.3-11.5-38.7-17.4-58c-1.9-6.1-3-12.6-8-17.1c-1.7-1.5-2.2-1.4-3.3,0.4c-4.9,8-10,16-15,24
			c-16.1,25.9-32.2,51.8-48.2,77.7c-0.9,1.5-2.4,2.6-2.3,4.6c-0.9,0-1.9,0-2.8,0c3.7-6,7.5-11.9,11.2-17.9
			c18.6-29.9,37.2-59.8,55.9-89.7c1.2-2,1.2-3.1-0.3-4.9c-8.2-9.8-16.3-19.8-24.4-29.7c-12.2-14.7-24.4-29.4-36.5-44.2
			c-1.3-1.6-2-1.3-2.9,0.3c-4.1,6.8-8.2,13.6-12.3,20.4c-19.3,32.2-38.5,64.3-57.8,96.5c-1,1.6-1.4,3.2-1.4,5.1
			c0,5.6,0.1,11.2-0.1,16.8c-0.4,15.8-0.5,31.5-0.5,47.3c-0.8,0-1.5,0-2.3,0c0.2-19.4,0.4-38.9,0.6-58.3c0-0.9,0.6-2.3-0.6-2.7
			c-1.1-0.3-1.4,1.2-1.8,2C37.1,747.1,29,760.5,21,774.1c-3.6,6.2-7.8,12-10.8,18.5c-0.8,0-1.5,0-2.3,0c1.4-3.9,4-7.1,6-10.6
			c10.9-18.3,21.9-36.5,32.8-54.7c0.8-1.3,1.3-2.7,1.3-4.3c0.1-13,0.1-26,0.4-39.1c0.5-21.8,0.6-43.6,0.8-65.3c0-0.6,0-1.2,0-1.8
			c0-0.5,0.1-1.1-0.5-1.2c-0.6-0.1-0.8,0.3-1,0.8c-0.4,1-0.8,2.1-1.2,3.1C41,634,35.5,648.6,29.9,663.1
			c-7.9,20.5-15.7,41.1-23.6,61.6c-1.8,4.7-3.2,9.7-5.7,14.1c0-2,0-4.1,0-6.1c1.1-0.1,1.2-1.2,1.5-2c3.6-9.4,7.2-18.8,10.8-28.2
			c11-28.8,22.1-57.6,33.1-86.5c1.3-3.5,3.3-6.9,3.5-10.9c0.2-5,0.3-10,0.3-14.9c0.3-23.7,0.5-47.4,0.8-71.1c0-1.4,0-2.7-1.1-3.9
			c-2.9-3.3-5.6-6.8-8.4-10.3c-10.3-12.5-20.5-25-30.8-37.3c-3.1-3.7-5.9-7.9-9.6-11.1c0-1,0-2,0-3.1c4.4,4.3,8,9.4,11.9,14.1
			c8.6,10.3,17,20.7,25.5,31c3.4,4.2,6.9,8.3,10.4,12.4c0.4,0.5,0.8,1.3,1.6,0.9c0.6-0.3,0.4-1.1,0.4-1.6c0.1-1.9,0.3-3.9,0.3-5.8
			c0.2-14.8,0.2-29.5,0.6-44.3c0.4-15.7,0.5-31.3,0.6-47c0.1-14.1,0.1-28.3-0.2-42.4c-0.4-15.2-0.2-30.3-0.6-45.5
			c-0.4-14.4-0.4-28.9-0.6-43.3c0-0.9,0.5-2.1-0.4-2.5c-1.1-0.5-1.6,0.8-2.2,1.5c-5.9,7.1-11.8,14.2-17.6,21.4
			c-9.9,11.9-19.7,23.8-29.6,35.7c0-1,0-2,0-3.1c0.4-0.4,1-0.7,1.3-1.1c7.3-8.8,14.5-17.7,21.8-26.5c7.4-9,15.1-17.8,22.4-26.8
			c2-2.4,4.6-4.4,4.4-8.6c-0.4-12.4-0.2-24.8-0.5-37.2c-0.5-16.1,0-32.3-0.7-48.5c0-1-0.2-2-0.6-2.9c-3.5-9-7.1-18-10.6-27
			c-6.3-16.4-12.5-32.8-18.8-49.1c-5-13-9.9-26.1-15.1-39c-1.1-2.8-1.5-6-3.7-8.2c0-1.4,0-2.9,0-4.3c0.7-0.3,0.8,0.4,1,0.7
			c2.9,7.4,5.8,14.9,8.7,22.4c5.2,13.7,10.4,27.4,15.7,41.1c7,18.3,14.1,36.5,21.2,54.7c0.3,0.8,0.4,2.1,1.4,1.9
			c1.2-0.2,0.7-1.5,0.7-2.2c-0.3-8.4,0-16.8-0.4-25.3c-0.7-15.1,0.1-30.3-0.6-45.4c-0.5-11-0.1-22-0.1-33c0-1.4-0.2-2.6-0.9-3.8
			c-6.8-11.2-13.6-22.4-20.4-33.7c-6.5-10.8-13-21.7-19.5-32.5c0.8,0,1.5,0,2.3,0c0.5,1,0.9,2,1.4,3c4.6,7.7,9.2,15.3,13.9,23
			c6.8,11.2,13.6,22.4,20.4,33.6c0.4,0.7,0.7,1.9,1.8,1.6c0.9-0.3,0.4-1.4,0.5-2.2c0.1-0.7,0-1.4,0-2.1C47.4,38.5,47.2,19.5,47,0.6
			c0.8,0,1.5,0,2.3,0c-0.7,1.8,0,3.6,0,5.4c0.1,19.8,0.4,39.5,0.6,59.3c0,1.5,0.2,3,1.1,4.3c7.1,11.7,14.2,23.4,21.3,35.1
			c16.2,26.7,32.3,53.3,48.4,80c2,3.3,2.1,3.3,4.6,0.3c5.3-6.2,10.5-12.5,15.7-18.8c5-6,10.1-12.1,15.1-18.1
			c9.7-11.7,19.3-23.4,29-34.9c1.5-1.8,1.7-2.9,0.4-4.9c-7.3-11.4-14.5-22.9-21.8-34.5C150.4,52.4,136.9,31,123.5,9.6
			c-1.8-2.9-4.2-5.5-5.1-9c0.8,0,1.5,0,2.3,0c-0.1,1.2,0.6,1.9,1.1,2.7c6.9,11,13.8,22,20.7,33c12.2,19.4,24.4,38.8,36.6,58.2
			c2.7,4.4,5.5,8.7,8.3,13c0.7,1.1,1.3,1.5,2.1,0.4c2.3-2.9,4.9-5.4,6.1-9.3c6.7-22.7,13.7-45.4,20.5-68.1c3-9.9,6.4-19.7,8.9-29.9
			c0.6,0,1.1,0,1.7,0c0,0.6,0,1.2-0.1,1.8c-3.3,11-6.6,22-9.9,33c-5.7,18.8-11.4,37.6-17.1,56.5c-0.3,1.1-0.8,2.2-0.4,3.4
			c1.1,0,1.5-0.7,2-1.3c10.5-12.6,20.9-25.3,31.4-37.9c9.1-11,18.3-21.9,27.5-32.8c1.2-1.4,1.8-3,1.8-4.9c-0.1-5.9,0-11.8,0-17.7
			c0.6,0,1.1,0,1.7,0c0,4.8,0,9.5,0.1,14.3c0,0.7-0.3,1.8,0.6,2.1c0.9,0.3,1.5-0.3,2-1.2c0.9-1.3,2.1-2.3,3-3.6
			c2.9-3.9,6.6-7.2,8.9-11.6C279,0.6,279.7,0.6,280.5,0.6z M118.6,431.1c0.3,1,0.4,1.7,0.6,2.4c1.2,4.2,2.5,8.3,3.7,12.5
			c9.8,32.9,19.7,65.8,29.5,98.7c0.3,1,0.3,2.6,1.4,2.7c1.1,0.2,1.5-1.3,2-2.2c13.5-22.5,27-45,40.5-67.5
			c8.3-13.9,16.7-27.8,25-41.7c0.9-1.5,1.6-2.7,0.1-4.5c-9.1-11.4-17.9-23-26.9-34.5c-1.1-1.4-1-2.3,0-3.6
			c8.9-11.2,17.7-22.4,26.6-33.6c1.2-1.6,1.5-2.9,0.3-4.8c-4.2-6.6-8.1-13.4-12.2-20.1c-17.7-29.2-35.4-58.4-53.1-87.6
			c-0.6-1-0.9-2.6-2.2-2.5c-1.6,0.1-1.3,2-1.7,3.1c-5.6,18.5-11.2,37.1-16.8,55.6c-5.3,17.3-10.5,34.6-15.9,51.8
			c-0.9,2.7-0.9,5.1,0.2,7.9c3.9,9.8,7.6,19.7,11.6,29.5c0.8,1.9,0.7,3.4,0,5.1c-3.3,8.4-6.5,16.9-9.7,25.3
			C120.7,425.7,119.6,428.5,118.6,431.1z M263.2,498.8c0-3.8,0-7.5,0-11.3c0-1.4-0.2-2.5-1.1-3.6c-12.1-15.5-24.1-31-36.1-46.6
			c-1.5-2-2.2-1.8-3.4,0.2c-4,6.9-8.1,13.7-12.2,20.5c-18.2,30.3-36.3,60.5-54.5,90.8c-1,1.7-1.1,3.2-0.5,5.1
			c4.4,14.3,8.6,28.6,12.9,42.9c7.5,25.1,15,50.1,22.5,75.2c0.2,0.6,0.2,1.6,0.9,1.8c0.9,0.2,1.2-0.8,1.6-1.4
			c5.9-9.5,11.8-18.9,17.7-28.3c16.6-26.5,33.1-53.1,49.6-79.6c1.1-1.8,2.4-3.5,2.4-6C263,538.5,262.8,518.7,263.2,498.8z
			 M263.3,255.6c-0.1,0-0.2,0-0.4,0c0-7.2,0-14.5,0-21.7c0-1.9-0.4-3.5-1.5-5.1c-10.3-16.3-20.7-32.7-30.9-49
			c-12.3-19.6-24.6-39.1-36.9-58.7c-0.5-0.8-0.9-2.1-2-1.9c-0.9,0.2-0.9,1.4-1.1,2.3c-3.5,11.5-6.9,23-10.4,34.5
			c-8.2,27-16.4,54.1-24.7,81.1c-0.8,2.5-0.4,4.4,0.8,6.5c8.2,13.5,16.4,27,24.6,40.5c13.6,22.5,27.2,45,40.8,67.5
			c2.5,4.1,2.6,4.1,5.5,0.3c11.4-14.5,22.7-29,34-43.5c1.3-1.7,2-3.4,2-5.8C263.2,287,263.3,271.3,263.3,255.6z M344.9,394.5
			c5.5-0.7,9.1-3.9,13.3-5.6c2.6-1,2.5-2.4,1.1-4.5c-6.9-10.9-13.8-21.8-20.6-32.7c-15.3-24.4-30.7-48.8-46-73.3
			c-2.2-3.6-2.6-3.6-5.3-0.3c-7,8.9-13.9,17.9-20.9,26.7c-0.9,1.1-1.1,2.2-1.1,3.6c0.4,15.5,0.2,30.9,0.3,46.4
			c0.2,28.7,0.4,57.4-0.1,86.1c-0.2,13.8-0.1,27.7-0.1,41.5c0,1.9,0.6,3.3,1.7,4.7c3.9,4.9,7.6,9.8,11.5,14.7
			c3.3,4.3,6.7,8.5,10,12.8c1.1,1.5,2.1,1.6,3.1-0.1c0.3-0.6,0.8-1.1,1.2-1.7c8.6-13.8,17.2-27.6,25.8-41.4c13.7-22,27.4-44,41.2-66
			c1.2-2,0.6-2.8-1.1-3.7C354.2,399.4,349.8,397.1,344.9,394.5z M53.5,496.4c-0.3,0-0.6,0-0.8,0c0,5.9,0,11.8,0,17.7
			c0,1.4,0.3,2.5,1.2,3.6c6.1,7.3,12.2,14.7,18.3,22.1c1.9,2.3,2.1,2.2,3.2-0.8c3.8-10,7.5-20,11.4-29.9
			c9.5-24.7,18.9-49.4,28.4-74.1c1-2.7,1.1-5.1,0.2-7.9c-3.2-10.2-6.1-20.5-9.2-30.8c-0.3-1.1-0.3-1.9,0-2.9
			c3.1-10,6.1-20.1,9.2-30.1c0.8-2.7,0.8-5.1-0.2-7.6c-3.9-9.9-7.8-19.8-11.6-29.8c-9.4-24.4-18.8-48.8-28.2-73.2
			c-1.2-3.1-1.6-3.2-3.6-0.7c-5.7,6.9-11.3,13.9-17.1,20.7c-1.5,1.7-2.1,3.4-2,5.7c0.3,12.3,0.4,24.6,0.6,36.9
			c0.2,15.8,0.4,31.5,0.6,47.3c0.2,24.4,0.2,48.9-0.2,73.3C53.2,456.1,53.5,476.2,53.5,496.4z M364,404.7c-1.8-0.3-2.3,0.9-2.8,1.8
			c-4.4,7.1-8.9,14.2-13.3,21.3c-10.3,16.6-20.6,33.1-31,49.7c-8,12.8-15.9,25.7-24,38.4c-1.1,1.8-1.4,3.1,0,4.8
			c9.2,11.7,18.3,23.5,27.5,35.2c10.2,13.1,20.3,26.2,30.5,39.3c4.2,5.4,8.3,10.8,12.5,16.1c0.6,0.7,1.1,1.9,2.2,1.6
			c1.1-0.3,0.8-1.5,1-2.3c0.8-3,1.4-6.1,2.1-9.2c7.4-33,14.8-66,22.3-99c5.4-23.9,10.8-47.8,16.3-71.7c0.5-2.2,0.1-3.2-1.8-4.2
			c-13.2-6.9-26.3-13.9-39.4-20.8C365.3,405.2,364.4,404.9,364,404.7z M407.7,361.4c-0.1-0.5-0.2-1.1-0.4-1.7
			c-2.8-12.1-5.5-24.3-8.3-36.4c-7.1-31-14.2-61.9-21.2-92.9c-3.7-16.2-7.3-32.4-11-48.5c-0.2-0.9,0-2.3-1.1-2.6
			c-1.3-0.4-1.6,1.1-2.3,1.9c-3.4,4.2-6.7,8.5-10.1,12.7c-5.7,7.2-11.5,14.5-17.2,21.8c-7.6,9.8-15.2,19.6-22.8,29.3
			c-6.7,8.6-13.5,17.2-20.3,25.8c-1.4,1.8-1.4,3.1-0.1,5.1c7,10.9,13.9,21.9,20.8,32.9c15.2,24.1,30.3,48.2,45.4,72.3
			c4.1,6.6,2.7,5.8,8.8,2.7c12.5-6.5,24.9-13,37.4-19.5C406.5,363.6,407.9,363.3,407.7,361.4z M262.1,594.7c0.3,0,0.5,0,0.8,0
			c0-8.7,0-17.3,0-26c0-0.9,0.6-2.3-0.6-2.6c-1-0.3-1.2,1.1-1.7,1.8c-13.4,21.4-26.7,42.8-40.1,64.2c-8,12.8-16,25.6-23.9,38.5
			c-1.4,2.3-4.1,4.5-3.7,7.3c0.7,5.1,1.7,10.3,4.9,14.4c5.8,7.4,11.9,14.5,17.8,21.7c14.6,17.7,29.3,35.4,43.9,53
			c0.5,0.6,0.8,2,1.8,1.5c0.9-0.4,0.4-1.6,0.4-2.5c0.2-12,0.2-24,0.3-36C262.3,684.9,262.1,639.8,262.1,594.7z M262.9,197.9
			c-0.4-10.3-0.3-20.5-0.4-30.8c-0.4-46.2-0.5-92.4-0.7-138.6c0-0.5,0-1,0-1.5c-0.1-0.6,0.3-1.3-0.4-1.6c-0.8-0.3-1.2,0.4-1.6,0.9
			c-8.2,9.9-16.5,19.7-24.7,29.6c-10.6,12.7-20.9,25.6-31.7,38.1c-4.8,5.6-8.7,11.3-10.3,18.8c-0.4,2.1-0.3,3.6,0.8,5.4
			c12.8,20.2,25.6,40.5,38.4,60.8c9.4,15,18.8,30.1,28.3,45.1c0.4,0.7,0.7,2.1,1.7,1.8c1.2-0.4,0.6-1.8,0.6-2.7
			C262.9,214.8,262.9,206.3,262.9,197.9z M152.2,550c-0.1-0.2-0.2-0.6-0.4-1.1c-3.2-10.8-6.4-21.7-9.7-32.5
			c-7.8-26.1-15.7-52.2-23.6-78.2c-0.2-0.8,0.1-2.4-1.3-2.3c-1.1,0.1-1.2,1.5-1.5,2.4c-5.5,14.5-11,28.9-16.5,43.4
			c-7.6,20-15.3,40-23,59.9c-0.6,1.6-0.4,2.8,0.7,4.1c14.5,17.6,29,35.2,43.5,52.9c1.5,1.8,2.3,1.8,3.6-0.3
			c9.1-15.3,18.3-30.5,27.5-45.7C152,552,152.4,551.3,152.2,550z M75.9,248.7c0.1,0.4,0.4,1.2,0.7,1.9c4.4,11.4,8.7,22.7,13.1,34
			c8.7,22.4,17.3,44.8,26,67.2c0.4,1,0.4,2.5,1.7,2.5c1.4,0,1.2-1.6,1.5-2.6c5.4-17.8,10.7-35.5,16.1-53.3
			c5.6-18.4,11.2-36.9,16.9-55.3c0.5-1.7,0.4-3-0.5-4.5c-9.1-14.9-18.1-29.9-27.1-44.9c-1.2-1.9-2-2.3-3.7-0.2
			c-8.9,10.9-17.9,21.6-27,32.4c-5.5,6.6-11.1,13.3-16.6,19.9C76.3,246.7,75.8,247.4,75.9,248.7z M50.7,710.4c-0.2,0-0.4,0-0.6,0
			c0,2.4,0,4.9,0,7.3c0,0.7-0.3,1.6,0.4,1.9c1,0.4,1.2-0.7,1.6-1.3c0.4-0.7,0.8-1.4,1.2-2c11.9-19.8,23.7-39.5,35.5-59.3
			c10.3-17.2,20.6-34.4,31-51.6c1.2-2,1.2-3.3-0.3-5c-3.1-3.6-6-7.3-9-10.9c-11.1-13.5-22.3-27.1-33.4-40.6c-2.3-2.8-2.6-2.6-4,0.9
			c-5.3,13.9-10.7,27.7-15.9,41.7c-2.8,7.5-6.2,14.6-6.1,23.1c0.2,14.8-0.1,29.7-0.4,44.6C50.4,676.2,50.7,693.3,50.7,710.4z
			 M50.4,158.3c0.2,0,0.5,0,0.7,0c0,6.5-0.2,13,0.1,19.5c0.2,3.8,0,7.7,1.5,11.4c3.1,7.4,5.8,15,8.7,22.5
			c4.1,10.5,8.2,20.9,12.2,31.5c0.8,2.2,1.6,2.3,2.9,0.6c1-1.3,2.1-2.6,3.1-3.9c5.8-6.9,11.6-13.8,17.4-20.8
			c7.4-8.9,14.7-18,22.3-26.8c1.8-2.1,1.8-3.5,0.4-5.7c-12.1-19.8-24.1-39.7-36.1-59.6c-10.3-17-20.5-34-30.8-51
			c-0.6-0.9-1-2.8-2.2-2.4c-1.3,0.4-0.6,2.1-0.6,3.2c0.1,5.7,0.2,11.4,0.3,17.1C50.5,115.4,50.4,136.9,50.4,158.3z M263.4,310.3
			c-0.3-0.1-0.6-0.2-0.9-0.3c-1.5,2-3.1,4-4.6,6c-10.4,13.3-20.8,26.5-31.2,39.7c-1,1.2-1,2.1-0.2,3.5c6.9,11.3,13.6,22.7,20.5,33.9
			c1,1.7,1,2.6,0.1,4.2c-6.8,11.1-13.4,22.3-20.2,33.4c-1.1,1.8-1.3,3,0.2,4.7c3.5,4.2,6.8,8.7,10.2,13
			c7.9,10.2,15.8,20.5,23.7,30.7c0.5,0.6,0.9,1.9,1.9,1.4c0.8-0.3,0.4-1.4,0.5-2.2c0.1-3.5,0.2-6.9,0.2-10.4
			c0.1-27.2,0.1-54.3,0.1-81.5c0-21.4-0.1-42.7-0.1-64.1C263.4,318.3,263.4,314.3,263.4,310.3z M190.2,676.7
			c-0.2-0.5-0.4-0.9-0.5-1.4c-7-23.3-14-46.6-21-69.9c-4.8-16.1-9.6-32.3-14.5-48.4c-0.2-0.7,0-2-1.3-2.1c-0.8,0-1.1,0.6-1.5,1.2
			c-8,13.3-16,26.6-23.9,39.9c-1.2,2-3.1,4.1-3.2,6.3c-0.2,2.5,2.7,3.8,4.1,5.9c0.4,0.6,0.8,1.1,1.3,1.6
			c10.3,12.4,20.6,24.9,30.8,37.3c8.5,10.3,17,20.7,25.6,31c0.7,0.8,1.4,1.9,2.6,1.3C189.7,678.9,190.1,677.8,190.2,676.7z
			 M190.2,115.9c-0.3-1-0.8-2.1-1.8-2.7c-1-0.5-1.5,0.5-2.1,1.2c-3.5,4.1-7,8.2-10.5,12.4c-10.8,13-21.5,26.1-32.3,39.1
			c-6.1,7.4-12.3,14.8-18.5,22.2c-1.1,1.3-1.2,2.2-0.2,3.7c1.5,2.2,2.8,4.6,4.2,6.9c7.3,12.1,14.6,24.3,22,36.4
			c0.4,0.7,0.7,2.1,1.9,1.9c1.2-0.2,1-1.6,1.3-2.5c2.7-8.7,5.2-17.4,7.9-26c8.2-26.8,16.3-53.6,24.5-80.4
			C187.9,124.1,189,120.1,190.2,115.9z M415.4,395.1c-0.1-0.5-0.2-1-0.3-1.5c-1.9-8.4-3.9-16.8-5.8-25.1c-0.8-3.6-0.9-3.6-4.1-1.9
			c-12.9,6.8-25.7,13.6-38.7,20.2c-2.4,1.2-2.3,2.3-1,4.3c2.7,4,2.7,4.1,0.1,8.2c-0.2,0.3-0.3,0.5-0.4,0.8c-1.3,1.6-0.8,2.5,0.9,3.4
			c13.4,7,26.8,14,40.1,21.2c1.7,0.9,2.5,0.7,2.9-1.4c1.6-7.5,3.4-15,5.1-22.5C414.6,398.8,415,396.9,415.4,395.1z M224,360
			c-0.8-0.1-1.2,0.5-1.6,1c-3.4,4.4-6.9,8.9-10.3,13.3c-4.9,6.2-9.6,12.5-14.7,18.4c-1.5,1.8-1.7,2.5-0.4,4.2
			c8.5,10.7,17,21.5,25.3,32.4c1.5,1.9,2.2,1.9,3.4-0.2c5.9-9.9,11.8-19.8,17.8-29.7c2.6-4.3,2.6-4.2,0.1-8.3
			c-5.9-9.7-11.8-19.5-17.8-29.3C225.2,361,225,360.1,224,360z M51.6,247.1c0.2,0,0.5,0,0.7,0c0,6.8,0,13.6,0,20.4
			c0,1.1-0.1,2.6,0.8,3.1c1.1,0.6,1.8-0.8,2.5-1.6c5.5-6.5,10.9-13.1,16.4-19.7c1.2-1.4,1.2-2.7,0.5-4.4
			c-6.3-16.2-12.5-32.4-18.8-48.5c-0.3-0.8-0.5-2.1-1.5-2c-1.1,0.2-0.6,1.5-0.6,2.3C51.6,213.5,51.6,230.3,51.6,247.1z M51.6,582.5
			c0,4,0,8.4,0,12.8c0,0.8-0.6,2.1,0.6,2.3c1,0.1,1.1-1.2,1.4-2c6.2-16.2,12.4-32.5,18.7-48.7c0.8-1.9,0.6-3.2-0.8-4.8
			c-5.2-6-10.2-12.2-15.3-18.4c-0.9-1.1-1.7-3.3-3-2.7c-1.3,0.6-1,2.8-1,4.4C52.3,544.3,52.1,563.2,51.6,582.5z M265.3,273
			c0,7.3,0,16.7,0,26.1c0,0.8-0.4,2,0.5,2.5c1,0.5,1.5-0.7,2-1.3c6.7-8.5,13.3-17.1,20-25.6c1.1-1.4,1-2.4,0.2-3.8
			c-6.8-10.8-13.6-21.7-20.5-32.5c-0.5-0.8-0.8-2.2-2-1.8c-1.1,0.4-0.7,1.8-0.6,2.7C265.6,249.8,264.9,260.4,265.3,273z
			 M265.3,522.5c-0.1,0-0.2,0-0.3,0c0,10.2,0,20.4,0,30.5c0,0.7-0.4,1.8,0.5,2.2c0.9,0.4,1.2-0.8,1.6-1.4
			c6.9-11,13.8-22.1,20.7-33.1c0.7-1.1,1.4-2.1,0.3-3.5c-6.8-8.7-13.6-17.5-20.4-26.2c-0.5-0.6-1-1.8-2-1.3
			c-0.8,0.4-0.4,1.5-0.4,2.2C265.3,502.1,265.3,512.3,265.3,522.5z M107.7,394.9c0.1,0.5,0.2,1,0.3,1.5c2.8,9.3,5.5,18.5,8.4,27.8
			c0.2,0.8,0.2,2.1,1.2,2.2c1.2,0.1,1.4-1.3,1.7-2.1c3.2-8.4,6.2-16.8,9.5-25.1c1.2-3.1,1.2-5.5-0.1-8.5c-3.4-8-6.3-16.2-9.5-24.4
			c-0.3-0.8-0.3-2-1.5-2c-1.2,0-1,1.3-1.3,2c-1.8,5.8-3.6,11.6-5.3,17.4C110,387.4,108.8,391.2,107.7,394.9z M366.2,394.8
			c-0.9-1.3-2-2.3-2.6-3.6c-1-2-2.1-2.1-3.9-1.2c-2.6,1.3-5,3.4-8,3.6c-0.5,0-1,0.2-1,0.8c-0.1,0.7,0.5,1.1,1,1.3
			c2.4,1.3,4.7,2.6,7.1,3.8c1.2,0.6,2.6,2.2,3.8,0.8C364,398.8,365,396.8,366.2,394.8z"/>
		<path fill="#D9D9D9" d="M592.7,792.6c-29.7,0-59.3,0-89,0c0-1-0.6-1.7-1.2-2.4c-11-14.1-21.9-28.2-32.9-42.2
			c-1.2-1.5-1.5-2.8-1.3-4.7c1.3-11.8,2.5-23.6,3.6-35.5c0.2-2.3,1.1-3.9,2.6-5.4c11.1-10.3,22.1-20.6,33.2-30.9
			c15.1-14.1,30.2-28.2,45.3-42.2c7.1-6.6,14.3-13.3,21.4-19.9c0.7-0.6,1.8-2.1,2.5-0.7c2,4,5,7.6,5.3,12.3
			c1.7,26.4,3.3,52.7,5,79.1c1.7,26.8,3.4,53.6,5,80.3C592.7,784.5,593.4,788.6,592.7,792.6z"/>
		<path fill="#D9D9D9" d="M504.3,0.6c29.7,0,59.3,0,89,0c-0.6,8.2-1.1,16.4-1.7,24.6c-1.2,17.8-2.3,35.7-3.4,53.5
			c-1.8,28.4-3.6,56.8-5.2,85.2c-0.4,6.6-1.5,12.7-5,18.4c-1.3,2.2-1.9,2-3.4,0.5c-5.5-5.2-11.1-10.3-16.7-15.5
			c-8.3-7.6-16.7-15.2-25-22.8c-8.7-8-17.2-16.1-25.9-24.1c-11-10.2-22.1-20.3-33.1-30.4c-1.1-1-1.6-2-1.8-3.6
			c-1.2-12.1-2.5-24.2-3.8-36.4c-0.2-2,0.4-3.5,1.6-5c9-11.4,18.1-22.8,27-34.3C499.5,7.5,502.6,4.6,504.3,0.6z"/>
		<path fill="#D9D9D9" d="M49.3,792.6c-0.1-15.8,0.1-31.5,0.5-47.3c0.1-5.6,0.1-11.2,0.1-16.8c0-1.9,0.4-3.5,1.4-5.1
			c19.3-32.1,38.5-64.3,57.8-96.5c4.1-6.8,8.2-13.6,12.3-20.4c1-1.6,1.6-1.9,2.9-0.3c12.1,14.7,24.3,29.4,36.5,44.2
			c8.1,9.9,16.2,19.9,24.4,29.7c1.5,1.8,1.5,3,0.3,4.9c-18.7,29.9-37.3,59.8-55.9,89.7c-3.7,6-7.5,11.9-11.2,17.9
			C95.4,792.6,72.3,792.6,49.3,792.6z"/>
		<path fill="#D9D8D9" d="M118.4,0.6c0.9,3.5,3.3,6.1,5.1,9c13.4,21.5,26.8,42.8,40.3,64.2c7.2,11.5,14.4,23,21.8,34.5
			c1.3,2,1.1,3.2-0.4,4.9c-9.7,11.6-19.4,23.3-29,34.9c-5,6.1-10.1,12.1-15.1,18.1c-5.2,6.3-10.4,12.6-15.7,18.8
			c-2.5,3-2.6,2.9-4.6-0.3c-16.2-26.7-32.3-53.3-48.4-80C65.2,93,58.1,81.3,51,69.6c-0.8-1.4-1-2.8-1.1-4.3
			C49.7,45.5,49.5,25.8,49.3,6c0-1.8-0.7-3.6,0-5.4C72.3,0.6,95.4,0.6,118.4,0.6z"/>
		<path fill="#D9D8D9" d="M328.1,792.6c0.1-4.8,1.7-9.3,2.7-13.9c9.4-42.2,19-84.3,28.5-126.5c2.3-10,4.5-19.9,6.8-29.9
			c0.2-0.8,0.1-2,1.1-2.2c0.8-0.1,1.2,0.9,1.7,1.5c9.4,12,18.7,23.9,28,35.9c9.4,12.1,18.9,24.3,28.3,36.4
			c5.6,7.2,11.2,14.3,16.8,21.4c0.8,1.1,1.7,2.2,2.5,3.4c0.3,0.3,0.6,0.5,0.8,0.8c0,1.2,0.9,1.8,1.6,2.4c1.7,1.6,1.4,2.7-0.2,4.1
			c-2.3,2-4.4,4.2-6.6,6.2c-18.7,17.4-37.5,34.8-56.2,52.3c-2.8,2.6-6.1,4.7-8.2,8.2C359.8,792.6,344,792.6,328.1,792.6z"/>
		<path fill="#D9D8D9" d="M384.7,151.3c-4.8,6-9.5,12-14.3,18c-0.2,0.2-0.3,0.5-0.5,0.7c-0.8,0.8-1.3,2.3-2.6,2.2
			c-1.5-0.2-1.1-1.9-1.3-3c-9.5-41.5-19-83-28.5-124.5c-3.3-14.7-6.6-29.4-9.9-44.1c15.9,0,31.7,0,47.6,0c0.4,1.8,1.8,2.5,2.9,3.5
			c8.4,7.8,16.9,15.5,25.3,23.3c8.7,8,17.4,16.1,26.1,24.1c5.6,5.2,11.3,10.4,17,15.6c1.8,1.6,2.2,3,0.3,4.9
			c-1.7,1.7-3.1,3.8-4.7,5.7c-9.8,12.5-19.6,25.1-29.5,37.7c-8.3,10.7-16.7,21.4-25,32.1l-0.2,0.1l0,0.2c-0.2,0.2-0.3,0.4-0.5,0.6
			c-0.6,0.2-0.7,0.8-0.9,1.4C385.6,150.3,385.1,150.8,384.7,151.3z"/>
		<path fill="#D9D9D9" d="M612.6,258.5c0,91.5,0,182.9,0,274.4c-0.4,0-0.8,0.1-1.1-0.1c-10.9-5.6-21.7-11.2-32.6-16.9
			c-1.2-0.6-1.4-1.8-1.4-3c0-6.2-0.7-12.3-1.1-18.5c-0.6-8.9-1.1-17.7-1.7-26.6c-0.7-12.2-1.5-24.4-2.3-36.6c-0.6-9-0.9-18-1.7-26.9
			c-0.3-3.2-0.6-6.5-0.5-9.7c0.2-5.7,0.7-11.5,1.1-17.2c0.2-3.2,0.3-6.5,0.5-9.7c0.7-10.2,1.6-20.3,2.2-30.5
			c0.5-8.6,1.1-17.1,1.7-25.7c0.8-10.7,1.3-21.4,1.7-32.1c0.1-2.3,0.7-3.7,2.7-4.7c7.4-3.7,14.6-7.8,22-11.4
			C605.6,261.7,608.7,259.3,612.6,258.5z"/>
		<path fill="#D9D9D9" d="M0.6,456.5c3.7,3.2,6.4,7.4,9.6,11.1C20.5,480,30.7,492.5,41,504.9c2.8,3.4,5.5,6.9,8.4,10.3
			c1.1,1.2,1.1,2.5,1.1,3.9c-0.3,23.7-0.5,47.4-0.8,71.1c-0.1,5-0.1,10-0.3,14.9c-0.1,4-2.1,7.4-3.5,10.9
			c-11,28.8-22,57.6-33.1,86.5C9.2,712,5.6,721.4,2,730.7c-0.3,0.8-0.3,1.9-1.5,2C0.6,640.6,0.6,548.6,0.6,456.5z"/>
		<path fill="#D9D9D9" d="M0.6,59.9c2.2,2.2,2.6,5.5,3.7,8.2c5.2,12.9,10.1,26,15.1,39c6.3,16.4,12.5,32.8,18.8,49.1
			c3.5,9,7,18,10.6,27c0.4,1,0.5,1.9,0.6,2.9c0.7,16.2,0.2,32.3,0.7,48.5c0.4,12.4,0.1,24.8,0.5,37.2c0.2,4.2-2.4,6.2-4.4,8.6
			c-7.4,9-15,17.8-22.4,26.8c-7.3,8.8-14.5,17.7-21.8,26.5c-0.4,0.4-0.9,0.7-1.3,1.1C0.6,243.2,0.6,151.6,0.6,59.9z"/>
		<path fill="#D9D8D9" d="M0.6,337.9c9.9-11.9,19.7-23.8,29.6-35.7c5.9-7.1,11.7-14.3,17.6-21.4c0.6-0.7,1.1-2,2.2-1.5
			c0.9,0.4,0.4,1.6,0.4,2.5c0.2,14.4,0.3,28.9,0.6,43.3c0.4,15.2,0.2,30.3,0.6,45.5c0.4,14.2,0.3,28.3,0.2,42.4
			c-0.1,15.7-0.2,31.4-0.6,47c-0.4,14.8-0.4,29.5-0.6,44.3c0,1.9-0.2,3.9-0.3,5.8c0,0.6,0.2,1.3-0.4,1.6c-0.8,0.4-1.2-0.4-1.6-0.9
			c-3.5-4.1-7-8.3-10.4-12.4c-8.5-10.3-17-20.7-25.5-31c-3.9-4.7-7.5-9.9-11.9-14.1C0.6,414.9,0.6,376.4,0.6,337.9z"/>
		<path fill="#6D4679" d="M612.6,258.5c-3.8,0.8-7,3.2-10.5,4.9c-7.4,3.6-14.6,7.7-22,11.4c-2,1-2.6,2.4-2.7,4.7
			c-0.5,10.7-0.9,21.4-1.7,32.1c-0.6,8.6-1.2,17.1-1.7,25.7c-0.6,10.2-1.5,20.3-2.2,30.5c-0.2,3.2-0.3,6.5-0.5,9.7
			c-0.4,5.7-0.9,11.5-1.1,17.2c-0.1,3.2,0.2,6.4,0.5,9.7c0.8,9,1.1,17.9,1.7,26.9c0.8,12.2,1.6,24.4,2.3,36.6
			c0.5,8.9,1.1,17.7,1.7,26.6c0.4,6.2,1.1,12.3,1.1,18.5c0,1.3,0.2,2.4,1.4,3c10.9,5.6,21.7,11.3,32.6,16.9c0.3,0.2,0.7,0.1,1.1,0.1
			c0,0.8,0,1.6,0,2.4c-1.5-0.1-2.6-1.1-3.9-1.7c-9.3-4.9-18.5-9.8-27.8-14.7c-2.6-1.4-2.8-1.2-2.9,1.9c0,1.5,0.5,2.8,0.5,4.2
			c0.4,9.1,1,18.2,1.7,27.3c0.8,10.8,1.1,21.6,1.9,32.4c0.2,3.4,0.2,6.9,0.6,10.3c0.3,2.9,1.3,3.2,3.4,1.3c3.3-3,6.4-6.2,9.7-9.2
			c5.6-5,10.8-10.6,16.8-15.2c0,1,0,2,0,3.1c-1-0.1-1.8,0.4-2.5,1.2c-1.8,1.8-3.6,3.6-5.4,5.2c-6.9,6-13.6,12.4-20.2,18.8
			c-1.3,1.2-1.7,2.5-1.2,4c0.6,1.9,0.4,3.8,0.4,5.7c0,4.9,0.6,9.6,3.1,13.8c1.1,2,2.2,4,3.2,6.1c6.2,12.5,12.3,25.1,18.6,37.5
			c1.2,2.3,2,4.9,4.1,6.6c0,1.4,0,2.9,0,4.3c-0.6-0.1-0.9-0.6-1.2-1.2c-6.5-13.2-12.9-26.3-19.4-39.5c-1.6-3.3-3.3-6.5-5-9.8
			c-0.3-0.6-0.5-1.7-1.5-1.4c-1.1,0.3-0.7,1.4-0.6,2.1c0.8,4.8,0.6,9.6,1,14.5c0.7,8.8,1.1,17.5,1.7,26.3c0.8,11,1.1,22,1.9,33
			c0.2,3.2,0.3,6.5,0.5,9.7c1,11.4,1.5,22.8,2.2,34.1c0.4,6.8,0.8,13.5,1.3,20.2c0.5,8.8,1.3,17.5,1.6,26.3c-0.8,0-1.5,0-2.3,0
			c0.7-4.1-0.1-8.1-0.3-12.1c-1.6-26.8-3.3-53.6-5-80.3c-1.7-26.4-3.3-52.7-5-79.1c-0.3-4.7-3.3-8.4-5.3-12.3
			c-0.7-1.4-1.8,0-2.5,0.7c-7.2,6.6-14.3,13.3-21.4,19.9c-15.1,14.1-30.2,28.2-45.3,42.2c-11.1,10.3-22.1,20.6-33.2,30.9
			c-1.6,1.5-2.4,3.1-2.6,5.4c-1.1,11.8-2.3,23.7-3.6,35.5c-0.2,1.8,0.1,3.2,1.3,4.7c11,14,21.9,28.1,32.9,42.2
			c0.5,0.7,1.1,1.4,1.2,2.4c-0.8,0-1.5,0-2.3,0c-0.4-0.7-0.7-1.4-1.2-2c-9.7-12.4-19.3-24.9-29-37.3c-0.9-1.2-1.5-3.5-3.1-3
			c-1.2,0.4-0.7,2.7-0.9,4.2c-1.3,12.7-2.5,25.4-3.8,38.1c-0.8,0-1.5,0-2.3,0c1.5-14.3,3-28.7,4.5-43c0.2-1.7,0.2-3.3-1-4.9
			c-4.5-5.7-9-11.5-13.4-17.3c-1.1-1.5-2-1.4-3.2-0.2c-3.2,3.1-6.5,6.2-9.8,9.2c-17.4,16.2-34.8,32.3-52.2,48.5
			c-2.6,2.4-5.6,4.4-7.6,7.6c-0.9,0-1.9,0-2.8,0c2.1-3.4,5.4-5.5,8.2-8.2c18.7-17.5,37.5-34.8,56.2-52.3c2.2-2.1,4.3-4.2,6.6-6.2
			c1.6-1.4,1.9-2.5,0.2-4.1c-0.7-0.6-1.6-1.2-1.6-2.4c-0.1-0.5-0.4-0.7-0.8-0.8c-0.8-1.1-1.7-2.2-2.5-3.4c-0.1-0.8,0.1-1.4,0.9-1.5
			c1.5,1.9,3.1,3.8,4.4,5.9c1.8,2.9,2.9,3,5.3,0.8c5.2-4.9,10.3-9.9,15.6-14.6c1.7-1.5,2.4-3.1,2.6-5.4c0.7-8.2,1.7-16.4,2.5-24.6
			c2.9-28.1,5.8-56.2,8.7-84.2c2.2-21.5,4.4-43,6.6-64.5c1.7-17,3.5-33.9,5.3-50.9c0.3-2.3-0.4-3.6-2.4-4.4
			c-2.4-1.1-4.7-2.5-7.1-3.7c0.2-0.6,0.4-1.2,0.6-1.7c0.6,0.3,1.2,0.7,1.7,1c0.3,0.6,0.7,0.7,1.3,0.7c1.4,0.6,2.8,1.2,4.1,1.9
			c1.6,0.9,2.3,0.6,2.5-1.5c0.6-6.7,1.4-13.3,2.1-19.9c0.1-1.3-0.4-2.4-0.9-3.4c-8.1-16.3-16.2-32.6-24.3-48.8
			c-0.4-0.8-0.8-1.2-0.2-2.3c8.3-16.2,16.4-32.4,24.6-48.6c0.6-1.3,0.8-2.5,0.7-3.8c-0.6-5.6-1.1-11.1-1.8-16.6
			c-0.6-5.3-0.6-5.1-5.2-2.7c-5.5,2.9-10.8,6.1-16.5,8.5c0-0.6,0-1.2,0-1.9c6.4-3.3,12.7-6.7,19.1-9.9c1.6-0.8,2-1.9,1.7-3.6
			c-0.2-0.9-0.3-1.8-0.4-2.7c-3.2-31.1-6.5-62.2-9.7-93.3c-4.4-42.5-8.8-85.1-13.2-127.6c-0.1-1.2-0.3-2.4-1.2-3.3
			c-5.7-5.2-11.5-10.4-17.2-15.8c-1.8-1.7-2.8-1.4-4.3,0.5c-7.7,10.1-15.6,20-23.5,30c-6.7,8.6-13.4,17.3-20.1,25.9
			c-4.7,6-9.5,11.8-14.2,17.7c-0.1,0.1-0.2,0.2-0.3,0.3c-0.9,1.1-1.7,2.2-2.6,3.3c-0.1-0.2-0.2-0.4-0.4-0.5c0-0.5,0-0.9-0.1-1.4
			c0.2-0.2,0.3-0.4,0.5-0.6c0,0,0.2-0.2,0.2-0.2c8.3-10.7,16.7-21.4,25-32.1c9.8-12.6,19.6-25.1,29.5-37.7c1.5-1.9,2.9-4,4.7-5.7
			c1.9-1.9,1.6-3.3-0.3-4.9c-5.7-5.1-11.3-10.4-17-15.6c-8.7-8-17.4-16.1-26.1-24.1C394.9,19.7,386.4,12,378,4.2
			c-1.1-1-2.5-1.8-2.9-3.5c0.9,0,1.9,0,2.8,0c0,1.2,0.9,1.7,1.6,2.4c5.8,5.4,11.5,10.8,17.3,16.1c11.3,10.4,22.6,20.7,33.9,31.2
			c5.6,5.2,11.2,10.5,16.9,15.7c1.1,1,2.3,2.1,3.8,0.1c3.7-5,7.5-9.9,11.5-14.6c2.3-2.8,3.2-5.6,2.7-9.3c-1.6-13.8-3-27.6-4.4-41.5
			c0.8,0,1.5,0,2.3,0c0,0.6-0.1,1.2,0,1.8c1.3,13.2,2.7,26.4,4.1,39.6c0.1,0.7-0.1,1.6,0.7,1.8c0.8,0.2,1.1-0.7,1.5-1.2
			c8-10.2,16.1-20.3,24-30.6c2.9-3.7,6.3-7,8.3-11.4c0.8,0,1.5,0,2.3,0c-1.7,4-4.8,6.9-7.4,10.2c-8.9,11.6-18,22.9-27,34.3
			c-1.2,1.5-1.8,3-1.6,5c1.3,12.1,2.6,24.2,3.8,36.4c0.2,1.6,0.8,2.6,1.8,3.6c11,10.1,22.1,20.2,33.1,30.4
			c8.7,8,17.2,16.1,25.9,24.1c8.3,7.7,16.7,15.2,25,22.8c5.6,5.1,11.2,10.2,16.7,15.5c1.6,1.5,2.1,1.7,3.4-0.5
			c3.4-5.6,4.6-11.7,5-18.4c1.6-28.4,3.4-56.8,5.2-85.2c1.1-17.8,2.3-35.7,3.4-53.5c0.5-8.2,1.1-16.4,1.7-24.6c0.6,0,1.1,0,1.7,0
			c-0.2,9-1,17.9-1.6,26.9c-0.6,9.3-1.1,18.5-1.7,27.8c-0.6,8.8-1.1,17.5-1.7,26.3c-0.8,12-1.4,24-2.3,36
			c-0.6,7.8-0.5,15.6-1.3,23.3c-0.4,4-0.3,8-0.8,12.1c-0.5,3.8-0.6,7.6-0.7,11.5c0,0.6-0.3,1.5,0.6,1.7c0.9,0.2,1-0.7,1.3-1.3
			c1.8-3.4,3.6-6.8,5.3-10.3c6.4-12.6,12.7-25.3,19-37.9c0.3-0.6,0.3-1.7,1.4-1.2c0,1.2,0,2.4,0,3.7c-0.9,0.4-1.5,0.9-2,1.9
			c-2.5,5.1-5,10.1-7.6,15.1c-5.7,11.4-11.3,22.9-17,34.3c-0.7,1.5-1.6,2.8-1.8,4.7c-0.5,4.5-0.1,9.1-1,13.6
			c-0.3,1.5,0.2,2.7,1.3,3.8c7.7,7,15.3,14.2,23.1,21.1c1.5,1.3,2.6,3.6,5,3.5c0,0.8,0,1.6,0,2.4c-0.3,0.5-0.6,0.2-0.9,0
			c-2.6-2.4-5.3-4.8-7.9-7.2c-6.1-5.5-12.1-11.1-18.2-16.6c-2-1.8-2.7-1.5-2.9,1.5c-0.3,3.4-0.3,6.9-0.6,10.3
			c-0.8,10.8-1.1,21.6-1.9,32.4c-0.2,3.2-0.3,6.5-0.6,9.7c-0.5,7.3-1,14.5-1.6,21.7c-0.1,2,0.6,2.4,2.2,1.6c2.3-1.1,4.6-2.2,6.9-3.4
			c7.9-4.1,15.8-8.3,23.7-12.5c0.5-0.3,1.1-0.9,1.8-0.3C612.6,257.3,612.6,257.9,612.6,258.5z M575.2,286.1
			C575.2,286.1,575.2,286.1,575.2,286.1c0.1-1.9,0.1-3.9,0.3-5.8c0.3-2.4-0.5-2.6-2.3-1.6c-18.1,9.5-36.3,18.9-54.5,28.4
			c-1.4,0.7-2.4,1.8-3.2,3.3c-5,9.9-9.9,19.9-15,29.7c-1.3,2.5-1.6,4.9-1.3,7.6c1.1,10.1,2.2,20.2,3.2,30.3
			c0.6,6.2,2.1,12.3,1.6,18.5c-1.4,15.4-3.1,30.7-4.6,46.1c-0.2,2.3-0.4,4.5,0.7,6.8c5,9.9,10.1,19.8,14.8,29.9
			c1.4,2.9,3.2,4.5,5.8,5.8c16.4,8.5,32.7,17.2,49.1,25.8c1.8,0.9,3.9,3.2,5.3,2.2c1.6-1.2,0.2-4.1,0.2-6.2c0-0.3,0-0.6,0-0.9
			c-1.6-25.3-3-50.5-4.7-75.8c-1.4-20.4-2.3-40.7-0.6-61.2C572.1,341.3,573.4,313.7,575.2,286.1z M473,698.3
			c-0.1,0.7-0.4,1.5,0.2,1.8c0.9,0.5,1.6-0.3,2.2-0.9c6.5-6,13-12,19.5-18.1c26.3-24.5,52.6-49.1,79-73.6c1.4-1.3,1.7-2.4,0.8-4.1
			c-8.7-17.3-17.4-34.7-26-52.1c-10.5-21.1-20.9-42.1-31.4-63.2c-0.8-1.6-1.4-3.3-3.1-4.2c-5.3-2.7-10.5-5.5-15.7-8.4
			c-2-1.1-2.5-0.5-2.7,1.8c-1.9,19.2-4,38.4-5.9,57.6c-2,19.3-4,38.6-5.9,57.9c-1.9,18.8-3.8,37.6-5.8,56.4
			C476.5,665.7,474.7,682,473,698.3z M474.2,93c-1.2,0-1,0.7-1,1.3c0,1.3,0.1,2.6,0.2,4c2.4,23.1,4.8,46.3,7.2,69.4
			c1.4,13.5,2.7,27.1,4.1,40.6c2.4,23.1,4.9,46.3,7.3,69.4c1.3,12.2,2.6,24.5,3.8,36.7c0.2,1.9,0.6,2.2,2.3,1.3
			c5.1-2.8,10.3-5.4,15.5-8.1c1.2-0.6,2.1-1.5,2.8-2.9c5.7-11.4,11.4-22.7,17.1-34c8.3-16.4,16.6-32.8,24.8-49.2
			c5.5-10.9,10.9-21.8,16.4-32.7c0.8-1.6,0.9-2.6-0.7-4c-4.7-4-9.2-8.4-13.7-12.7c-9.4-8.7-18.8-17.5-28.3-26.2
			c-11.5-10.6-23-21.2-34.5-31.8c-7.4-6.8-14.7-13.6-22.1-20.3C474.9,93.5,474.4,93.2,474.2,93z M581.2,599.5c0-0.5,0-0.6-0.1-0.7
			c-1.7-26.2-3.4-52.5-4.9-78.7c-0.2-2.8-1-4.3-3.4-5.5c-16.7-8.7-33.3-17.5-50-26.3c-0.9-0.5-2.1-1.9-3-0.8c-0.8,1,0.4,2.2,0.9,3.3
			c9.1,18.3,18.3,36.7,27.4,55c9.2,18.4,18.3,36.9,27.5,55.3c0.5,1,0.7,3.2,2.3,2.3C579.5,602.7,581.2,601.5,581.2,599.5z
			 M581.1,193c0.2-2.2-1.3-3.2-2.9-4c-1.7-0.9-2,0.9-2.5,2c-5.5,10.9-11,21.7-16.5,32.6c-12.7,25.3-25.5,50.7-38.2,76.1
			c-0.6,1.2-2.1,2.6-1,3.7c0.9,1,2.4-0.4,3.6-1c16.8-8.7,33.5-17.5,50.3-26.2c1.5-0.8,2.1-1.7,2.2-3.5c0.4-7,0.8-14,1.2-21
			C578.6,232.1,579.9,212.6,581.1,193z M502.3,395.4c-0.6-6.3-1.3-12.8-2-19.2c-0.9-8.5-1.8-16.9-2.7-25.4c-0.1-0.6,0.2-1.6-0.7-1.7
			c-0.9-0.2-1,0.8-1.3,1.3c-1.9,3.7-3.8,7.5-5.7,11.2c-5.1,10.1-10.1,20.1-15.2,30.2c-0.8,1.5-2,2.7-0.9,4.9
			c7.3,14.4,14.4,29,21.7,43.5c0.3,0.6,0.5,1.8,1.5,1.4c0.8-0.2,0.5-1.2,0.6-1.8c0.6-5.6,1.2-11.3,1.8-16.9
			C500.4,413.8,501.3,404.7,502.3,395.4z M469.7,82.2c-1-9.7-2-19.3-3-29c-0.1-0.7,0-1.5-0.8-1.8c-0.9-0.2-1.4,0.5-1.8,1.1
			c-3.8,4.9-7.6,9.8-11.4,14.6c-1.2,1.5-1,2.4,0.3,3.5c4.8,4.4,9.5,8.9,14.3,13.3c0.6,0.5,1.4,1.5,2.2,0.8
			C470.2,84.2,469.6,83,469.7,82.2z M469.7,711.3c-0.1-0.9,0.6-2.3-0.3-2.9c-1.1-0.8-1.8,0.7-2.5,1.4c-4.7,4.3-9.4,8.8-14.1,13.1
			c-0.9,0.8-1.4,1.5-0.4,2.7c4.1,5.3,8.2,10.6,12.3,15.9c0.4,0.5,0.7,1,1.4,0.8c0.7-0.2,0.7-0.9,0.8-1.5
			C467.7,731.1,468.7,721.3,469.7,711.3z M496.4,320.1c0.6,5.6,1.1,10.5,1.7,15.4c0.1,1-0.5,2.6,0.9,2.8c1,0.2,1.3-1.3,1.7-2.1
			c3.8-7.3,7.4-14.7,11.1-22.1c0.4-0.9,1.4-1.9,0.8-2.7c-0.7-1-1.9-0.2-2.8,0.3c-4,2.1-7.9,4.3-11.9,6.3
			C496.6,318.6,496.2,319.4,496.4,320.1z M499,452.3c-0.7,0-0.7,0.6-0.7,1.1c-0.6,5.7-1.2,11.5-1.8,17.2c-0.1,1.3,0.4,2,1.5,2.6
			c4.3,2.2,8.6,4.5,13,6.7c0.5,0.3,1.1,0.7,1.6,0.2c0.6-0.6,0.3-1.4,0-2c-4.1-8.2-8.2-16.4-12.4-24.6
			C499.8,453.1,499.7,452.4,499,452.3z M581.7,611.6c0-2,0-3.9,0-5.9c0-0.6,0.2-1.6-0.8-1.6c-0.7,0-1.1,0.6-1.3,1.3
			C579.1,607.9,580,609.8,581.7,611.6z M580.5,187.3c0.7-1.8,0.7-3.3,0.5-4.9C580.6,183.9,578.2,185,580.5,187.3z"/>
		<path fill="#D9D8D9" d="M225,0.6c-2.4,10.1-5.9,19.9-8.9,29.9c-6.8,22.7-13.7,45.4-20.5,68.1c-1.2,3.9-3.9,6.4-6.1,9.3
			c-0.9,1.1-1.5,0.7-2.1-0.4c-2.7-4.4-5.5-8.7-8.3-13c-12.2-19.4-24.4-38.8-36.6-58.2c-6.9-11-13.8-22-20.7-33
			c-0.5-0.8-1.3-1.5-1.1-2.7C155.5,0.6,190.2,0.6,225,0.6z"/>
		<path fill="#D9D8D9" d="M121.3,792.6c-0.1-2.1,1.4-3.2,2.3-4.6c16.1-25.9,32.1-51.8,48.2-77.7c5-8,10.1-15.9,15-24
			c1.1-1.9,1.7-1.9,3.3-0.4c5,4.5,6.1,11,8,17.1c5.9,19.3,11.6,38.7,17.4,58c3.2,10.5,6.3,21.1,9.5,31.6
			C190.4,792.6,155.8,792.6,121.3,792.6z"/>
		<path fill="#D9D8D9" d="M7.4,0.6c6.5,10.8,13,21.7,19.5,32.5c6.8,11.2,13.6,22.5,20.4,33.7c0.7,1.1,0.9,2.4,0.9,3.8
			c0,11-0.3,22,0.1,33c0.7,15.2-0.1,30.3,0.6,45.4c0.4,8.4,0.1,16.9,0.4,25.3c0,0.8,0.5,2.1-0.7,2.2c-1.1,0.2-1.1-1.1-1.4-1.9
			c-7.1-18.2-14.2-36.5-21.2-54.7c-5.3-13.7-10.5-27.4-15.7-41.1c-2.9-7.5-5.8-14.9-8.7-22.4c-0.1-0.4-0.3-1-1-0.7
			c0-17.6,0-35.3-0.1-52.9c0-1.9,0.5-2.3,2.1-2.1C4.2,0.7,5.8,0.6,7.4,0.6z"/>
		<path fill="#D8D8D8" d="M0.6,738.8c2.5-4.4,3.9-9.4,5.7-14.1c7.9-20.5,15.7-41.1,23.6-61.6c5.6-14.5,11.1-29.1,16.7-43.6
			c0.4-1,0.8-2.1,1.2-3.1c0.2-0.5,0.4-0.9,1-0.8c0.6,0.2,0.5,0.8,0.5,1.2c0,0.6,0,1.2,0,1.8c-0.2,21.8-0.3,43.6-0.8,65.3
			c-0.3,13-0.3,26-0.4,39.1c0,1.6-0.5,3-1.3,4.3c-11,18.2-22,36.4-32.8,54.7c-2.1,3.5-4.6,6.7-6,10.6c-2.5,0-5.9,1-7.1-0.3
			c-1.2-1.3-0.3-5-0.3-7.7C0.6,769.4,0.6,754.1,0.6,738.8z"/>
		<path fill="#D8D8D8" d="M461.3,0.6c1.4,13.8,2.8,27.7,4.4,41.5c0.4,3.7-0.5,6.6-2.7,9.3c-4,4.8-7.7,9.7-11.5,14.6
			c-1.5,2-2.7,0.9-3.8-0.1c-5.7-5.2-11.2-10.5-16.9-15.7c-11.3-10.4-22.6-20.8-33.9-31.2c-5.8-5.3-11.6-10.7-17.3-16.1
			c-0.7-0.6-1.6-1.2-1.6-2.4C405.7,0.6,433.5,0.6,461.3,0.6z"/>
		<path fill="#D9D8D9" d="M378.5,792.6c2-3.2,5-5.2,7.6-7.6c17.4-16.2,34.8-32.4,52.2-48.5c3.3-3,6.6-6.1,9.8-9.2
			c1.3-1.2,2.1-1.3,3.2,0.2c4.4,5.8,8.9,11.6,13.4,17.3c1.2,1.5,1.2,3.1,1,4.9c-1.5,14.3-3,28.7-4.5,43
			C433.7,792.6,406.1,792.6,378.5,792.6z"/>
		<path fill="#D9D9D9" d="M595,792.6c-0.3-8.8-1-17.5-1.6-26.3c-0.4-6.7-0.8-13.5-1.3-20.2c-0.7-11.4-1.2-22.8-2.2-34.1
			c-0.3-3.2-0.3-6.4-0.5-9.7c-0.8-11-1-22-1.9-33c-0.6-8.8-1.1-17.5-1.7-26.3c-0.4-4.8-0.2-9.7-1-14.5c-0.1-0.7-0.5-1.7,0.6-2.1
			c1-0.3,1.2,0.8,1.5,1.4c1.7,3.2,3.4,6.5,5,9.8c6.5,13.2,13,26.3,19.4,39.5c0.3,0.6,0.5,1.1,1.2,1.2c0,37.3,0,74.6,0.1,111.8
			c0,2.1-0.4,2.6-2.3,2.5C605.2,792.5,600.1,792.6,595,792.6z"/>
		<path fill="#D9D9D9" d="M612.6,115.5c-1.1-0.5-1.1,0.6-1.4,1.2c-6.4,12.6-12.7,25.3-19,37.9c-1.7,3.4-3.5,6.9-5.3,10.3
			c-0.3,0.6-0.4,1.5-1.3,1.3c-1-0.2-0.7-1.1-0.6-1.7c0.1-3.8,0.2-7.7,0.7-11.5c0.5-4,0.4-8,0.8-12.1c0.8-7.7,0.7-15.6,1.3-23.3
			c0.9-12,1.5-24,2.3-36c0.6-8.8,1.1-17.5,1.7-26.3c0.6-9.3,1.1-18.5,1.7-27.8c0.6-9,1.4-17.9,1.6-26.9c5.2,0,10.4,0.1,15.6-0.1
			c1.7,0,2,0.4,2,2.2C612.6,40.3,612.6,77.9,612.6,115.5z"/>
		<path fill="#D8D7D8" d="M261.8,0.6c0,5.9-0.1,11.8,0,17.7c0,2-0.5,3.5-1.8,4.9c-9.2,10.9-18.3,21.8-27.5,32.8
			c-10.5,12.6-20.9,25.3-31.4,37.9c-0.5,0.6-1,1.3-2,1.3c-0.4-1.2,0-2.3,0.4-3.4c5.7-18.8,11.4-37.6,17.1-56.5c3.3-11,6.6-22,9.9-33
			c0.2-0.5,0.1-1.2,0.1-1.8C238.4,0.6,250.1,0.6,261.8,0.6z"/>
		<path fill="#D8D8D8" d="M226.7,792.6c-2.2-9.3-5.3-18.4-8.1-27.6c-6.4-21.5-12.8-42.9-19.2-64.4c-0.3-0.9-0.7-1.7-0.3-2.6
			c0.9-0.3,1.4,0.4,1.9,1c12.5,15.2,24.9,30.5,37.5,45.7c7.1,8.7,14.4,17.2,21.6,25.8c1.2,1.4,1.7,2.8,1.7,4.6c0,5.8,0,11.6,0,17.4
			C250.1,792.6,238.4,792.6,226.7,792.6z"/>
		<path fill="#D9D8D9" d="M612.6,572c-5.9,4.6-11.1,10.2-16.8,15.2c-3.3,3-6.5,6.2-9.7,9.2c-2.1,1.9-3,1.6-3.4-1.3
			c-0.4-3.4-0.3-6.9-0.6-10.3c-0.8-10.8-1.1-21.6-1.9-32.4c-0.6-9.1-1.3-18.2-1.7-27.3c-0.1-1.4-0.6-2.7-0.5-4.2
			c0.1-3.1,0.3-3.3,2.9-1.9c9.3,4.9,18.5,9.8,27.8,14.7c1.3,0.7,2.4,1.6,3.9,1.7C612.6,547.6,612.6,559.8,612.6,572z"/>
		<path fill="#D9D8D9" d="M612.6,256.7c-0.7-0.6-1.2,0-1.8,0.3c-7.9,4.1-15.8,8.3-23.7,12.5c-2.3,1.2-4.6,2.3-6.9,3.4
			c-1.5,0.8-2.3,0.4-2.2-1.6c0.5-7.2,1.1-14.5,1.6-21.7c0.2-3.2,0.3-6.5,0.6-9.7c0.8-10.8,1.1-21.6,1.9-32.4
			c0.2-3.4,0.3-6.9,0.6-10.3c0.2-3,0.9-3.3,2.9-1.5c6.1,5.5,12.1,11,18.2,16.6c2.6,2.4,5.3,4.8,7.9,7.2c0.3,0.2,0.6,0.5,0.9,0
			C612.6,231.8,612.6,244.2,612.6,256.7z"/>
		<path fill="#D9D9D9" d="M612.6,674.1c-2-1.7-2.9-4.3-4.1-6.6c-6.3-12.5-12.4-25-18.6-37.5c-1-2-2-4.1-3.2-6.1
			c-2.5-4.3-3-9-3.1-13.8c0-1.9,0.2-3.8-0.4-5.7c-0.5-1.5-0.1-2.8,1.2-4c6.6-6.4,13.3-12.7,20.2-18.8c1.9-1.6,3.7-3.4,5.4-5.2
			c0.7-0.7,1.4-1.3,2.5-1.2C612.6,608.1,612.6,641.1,612.6,674.1z"/>
		<path fill="#D9D9D9" d="M612.6,216.9c-2.4,0.2-3.5-2.2-5-3.5c-7.8-6.9-15.4-14-23.1-21.1c-1.1-1-1.6-2.3-1.3-3.8
			c0.9-4.5,0.5-9.1,1-13.6c0.2-1.8,1-3.2,1.8-4.7c5.7-11.4,11.4-22.9,17-34.3c2.5-5,5.1-10,7.6-15.1c0.5-1,1.2-1.5,2-1.9
			C612.6,151.8,612.6,184.4,612.6,216.9z"/>
		<path fill="#D8D7D8" d="M47,0.6c0.2,18.9,0.4,37.9,0.6,56.8c0,0.7,0.1,1.4,0,2.1c-0.1,0.7,0.4,1.8-0.5,2.2
			c-1.1,0.4-1.3-0.8-1.8-1.6c-6.8-11.2-13.6-22.4-20.4-33.6c-4.6-7.6-9.3-15.3-13.9-23c-0.6-0.9-1-2-1.4-3C22.1,0.6,34.6,0.6,47,0.6
			z"/>
		<path fill="#D8D8D8" d="M10.2,792.6c3-6.6,7.1-12.4,10.8-18.5c8-13.5,16.1-27,24.2-40.4c0.5-0.8,0.7-2.3,1.8-2
			c1.2,0.3,0.6,1.8,0.6,2.7c-0.2,19.4-0.4,38.9-0.6,58.3C34.8,792.6,22.5,792.6,10.2,792.6z"/>
		<path fill="#D8D7D8" d="M502.1,0.6c-2,4.4-5.5,7.7-8.3,11.4c-7.9,10.3-16,20.4-24,30.6c-0.4,0.5-0.7,1.4-1.5,1.2
			c-0.8-0.2-0.6-1.1-0.7-1.8c-1.4-13.2-2.7-26.4-4.1-39.6c-0.1-0.6,0-1.2,0-1.8C476.4,0.6,489.2,0.6,502.1,0.6z"/>
		<path fill="#D8D7D8" d="M463.5,792.6c1.3-12.7,2.5-25.4,3.8-38.1c0.2-1.5-0.3-3.8,0.9-4.2c1.5-0.5,2.2,1.9,3.1,3
			c9.7,12.4,19.4,24.8,29,37.3c0.5,0.6,0.8,1.4,1.2,2C488.8,792.6,476.2,792.6,463.5,792.6z"/>
		<path fill="#D6D5D7" d="M278.2,0.6c-2.4,4.4-6,7.7-8.9,11.6c-0.9,1.3-2.1,2.3-3,3.6c-0.6,0.8-1.1,1.5-2,1.2
			c-1-0.3-0.6-1.3-0.6-2.1c-0.1-4.8-0.1-9.5-0.1-14.3C268.4,0.6,273.3,0.6,278.2,0.6z"/>
		<path fill="#D6D5D7" d="M263.5,792.6c0-4.7,0.1-9.3,0.1-13.9c0-0.7-0.3-1.5,0.6-1.8c0.5-0.2,0.9,0.1,1.2,0.5
			c4.2,4.9,8.7,9.7,12.3,15.2C272.9,792.6,268.2,792.6,263.5,792.6z"/>
		<path fill="#D9D9D9" d="M484.5,468c2.4,1.3,4.7,2.7,7.1,3.7c2,0.9,2.6,2.1,2.4,4.4c-1.8,17-3.6,33.9-5.3,50.9
			c-2.2,21.5-4.4,43-6.6,64.5c-2.9,28.1-5.8,56.2-8.7,84.2c-0.8,8.2-1.8,16.4-2.5,24.6c-0.2,2.3-0.9,3.9-2.6,5.4
			c-5.3,4.7-10.4,9.7-15.6,14.6c-2.4,2.3-3.5,2.1-5.3-0.8c-1.3-2.1-2.9-4-4.4-5.9c-9.6-12.4-19.2-24.8-28.8-37.2
			c-13.3-17.2-26.7-34.5-40.1-51.7c-1.3-1.7-2.5-3.6-4.1-5.1c-2.3-2.2-2.4-4.6-1.7-7.7c10.2-44.8,20.3-89.7,30.5-134.5
			c3.5-15.3,7-30.6,10.3-45.9c0.5-2.5,1.6-2.4,3.2-1.6c2.9,1.5,5.8,3,8.6,4.6c20.7,10.9,41.3,21.9,62,32.8
			C483.4,467.6,484,467.8,484.5,468z"/>
		<path fill="#D9D9D9" d="M390.2,146.7c4.7-5.9,9.5-11.8,14.2-17.7c6.8-8.6,13.4-17.3,20.1-25.9c7.8-10,15.7-19.9,23.5-30
			c1.5-1.9,2.4-2.3,4.3-0.5c5.6,5.4,11.4,10.5,17.2,15.8c1,0.9,1.1,2,1.2,3.3c4.4,42.5,8.8,85.1,13.2,127.6
			c3.2,31.1,6.5,62.2,9.7,93.3c0.1,0.9,0.2,1.8,0.4,2.7c0.3,1.7-0.1,2.8-1.7,3.6c-6.4,3.2-12.7,6.6-19.1,9.9
			c-11.7,6.1-23.4,12.2-35.1,18.3c-8.6,4.5-17.1,8.9-25.7,13.4c-2,1-2.7,0.7-3.3-1.7c-7.8-34.5-15.7-69.1-23.6-103.6
			c-5.8-25.4-11.5-50.7-17.4-76.1c-0.5-2.1-0.4-3.7,1.1-5.5c5.5-6.8,10.9-13.7,16.3-20.6c0.2-0.2,0.2-0.6,0.3-0.8
			c0.5-0.6,1-1.3,1.5-1.9c0.9-1.1,1.7-2.2,2.6-3.3C390.1,146.9,390.2,146.9,390.2,146.7z"/>
		<path fill="#D9D8D9" d="M118.6,431.1c1-2.6,2-5.4,3.1-8.2c3.2-8.4,6.5-16.9,9.7-25.3c0.7-1.7,0.8-3.2,0-5.1
			c-4-9.8-7.6-19.7-11.6-29.5c-1.1-2.7-1.1-5.1-0.2-7.9c5.4-17.3,10.6-34.5,15.9-51.8c5.6-18.5,11.2-37.1,16.8-55.6
			c0.3-1.1,0.1-3,1.7-3.1c1.3-0.1,1.6,1.5,2.2,2.5c17.7,29.2,35.4,58.4,53.1,87.6c4.1,6.7,8,13.5,12.2,20.1c1.2,1.9,0.9,3.3-0.3,4.8
			c-8.9,11.2-17.7,22.4-26.6,33.6c-1.1,1.3-1.1,2.2,0,3.6c9,11.5,17.9,23.1,26.9,34.5c1.5,1.8,0.8,3-0.1,4.5
			c-8.4,13.9-16.7,27.8-25,41.7c-13.5,22.5-27,45-40.5,67.5c-0.5,0.9-0.9,2.4-2,2.2c-1.1-0.2-1.1-1.7-1.4-2.7
			c-9.9-32.9-19.7-65.8-29.5-98.7c-1.2-4.2-2.5-8.3-3.7-12.5C119.1,432.8,118.9,432.1,118.6,431.1z"/>
		<path fill="#D9D8D9" d="M263.2,498.8c-0.5,19.8-0.3,39.7-0.3,59.6c0,2.5-1.3,4.2-2.4,6c-16.5,26.6-33.1,53.1-49.6,79.6
			c-5.9,9.4-11.8,18.9-17.7,28.3c-0.4,0.7-0.7,1.6-1.6,1.4c-0.7-0.2-0.7-1.1-0.9-1.8c-7.5-25-15-50.1-22.5-75.2
			c-4.3-14.3-8.6-28.6-12.9-42.9c-0.6-1.9-0.5-3.4,0.5-5.1c18.2-30.2,36.4-60.5,54.5-90.8c4.1-6.8,8.2-13.6,12.2-20.5
			c1.2-2,1.9-2.2,3.4-0.2c12,15.6,24,31.1,36.1,46.6c0.9,1.1,1.1,2.3,1.1,3.6C263.2,491.3,263.2,495.1,263.2,498.8z"/>
		<path fill="#D9D8D9" d="M263.3,255.6c0,15.7,0,31.3,0.1,47c0,2.3-0.6,4.1-2,5.8c-11.4,14.5-22.7,29-34,43.5
			c-3,3.8-3.1,3.8-5.5-0.3c-13.6-22.5-27.2-45-40.8-67.5c-8.2-13.5-16.4-27-24.6-40.5c-1.3-2.1-1.6-4-0.8-6.5
			c8.3-27,16.5-54,24.7-81.1c3.5-11.5,6.9-23,10.4-34.5c0.3-0.9,0.2-2.1,1.1-2.3c1.1-0.2,1.4,1.1,2,1.9
			c12.3,19.6,24.6,39.1,36.9,58.7c10.3,16.4,20.6,32.7,30.9,49c1,1.6,1.5,3.2,1.5,5.1c-0.1,7.2,0,14.5,0,21.7
			C263,255.6,263.1,255.6,263.3,255.6z"/>
		<path fill="#D9D8D9" d="M344.9,394.5c5,2.6,9.3,4.9,13.7,7.1c1.7,0.8,2.3,1.7,1.1,3.7c-13.8,22-27.5,44-41.2,66
			c-8.6,13.8-17.2,27.6-25.8,41.4c-0.4,0.6-0.8,1.1-1.2,1.7c-1,1.7-1.9,1.6-3.1,0.1c-3.3-4.3-6.7-8.5-10-12.8
			c-3.8-4.9-7.6-9.8-11.5-14.7c-1.1-1.4-1.7-2.8-1.7-4.7c0.1-13.8-0.1-27.7,0.1-41.5c0.5-28.7,0.4-57.4,0.1-86.1
			c-0.1-15.5,0.1-30.9-0.3-46.4c0-1.4,0.2-2.5,1.1-3.6c7-8.9,14-17.8,20.9-26.7c2.6-3.3,3-3.3,5.3,0.3c15.3,24.4,30.7,48.9,46,73.3
			c6.9,10.9,13.7,21.9,20.6,32.7c1.4,2.2,1.5,3.5-1.1,4.5C354,390.6,350.3,393.8,344.9,394.5z"/>
		<path fill="#D9D8D9" d="M53.5,496.4c0-20.2-0.3-40.3,0.1-60.4c0.5-24.4,0.4-48.9,0.2-73.3c-0.1-15.8-0.3-31.5-0.6-47.3
			c-0.2-12.3-0.3-24.6-0.6-36.9c0-2.3,0.5-4,2-5.7c5.8-6.8,11.4-13.8,17.1-20.7c2-2.4,2.4-2.4,3.6,0.7c9.4,24.4,18.8,48.8,28.2,73.2
			c3.8,9.9,7.7,19.9,11.6,29.8c1,2.6,1.1,5,0.2,7.6c-3.2,10-6.1,20.1-9.2,30.1c-0.3,1-0.4,1.8,0,2.9c3.1,10.2,6,20.5,9.2,30.8
			c0.9,2.8,0.8,5.2-0.2,7.9c-9.5,24.7-19,49.4-28.4,74.1c-3.8,10-7.6,19.9-11.4,29.9c-1.1,3-1.3,3.1-3.2,0.8
			c-6.1-7.4-12.1-14.8-18.3-22.1c-0.9-1.1-1.2-2.2-1.2-3.6c0-5.9,0-11.8,0-17.7C52.9,496.4,53.2,496.4,53.5,496.4z"/>
		<path fill="#D9D8D9" d="M364,404.7c0.4,0.2,1.3,0.6,2.1,1c13.1,7,26.2,14,39.4,20.8c1.9,1,2.4,2,1.8,4.2
			c-5.5,23.9-10.9,47.8-16.3,71.7c-7.4,33-14.8,66-22.3,99c-0.7,3.1-1.4,6.1-2.1,9.2c-0.2,0.8,0.1,2-1,2.3c-1.1,0.3-1.6-0.9-2.2-1.6
			c-4.2-5.4-8.4-10.8-12.5-16.1c-10.2-13.1-20.3-26.2-30.5-39.3c-9.1-11.8-18.3-23.5-27.5-35.2c-1.4-1.8-1.1-3.1,0-4.8
			c8-12.8,16-25.6,24-38.4c10.3-16.6,20.6-33.1,31-49.7c4.4-7.1,8.8-14.2,13.3-21.3C361.7,405.5,362.1,404.3,364,404.7z"/>
		<path fill="#D9D8D9" d="M407.7,361.4c0.2,1.9-1.2,2.2-2.3,2.7c-12.5,6.5-24.9,13-37.4,19.5c-6,3.1-4.7,3.9-8.8-2.7
			c-15.1-24.1-30.3-48.2-45.4-72.3c-6.9-11-13.8-22-20.8-32.9c-1.2-1.9-1.3-3.3,0.1-5.1c6.8-8.6,13.5-17.2,20.3-25.8
			c7.6-9.8,15.2-19.6,22.8-29.3c5.7-7.3,11.5-14.5,17.2-21.8c3.4-4.2,6.7-8.5,10.1-12.7c0.6-0.8,1-2.3,2.3-1.9
			c1.1,0.3,0.9,1.7,1.1,2.6c3.7,16.2,7.3,32.4,11,48.5c7.1,31,14.1,61.9,21.2,92.9c2.8,12.1,5.5,24.3,8.3,36.4
			C407.5,360.3,407.6,360.9,407.7,361.4z"/>
		<path fill="#D8D8D8" d="M486.8,467.4c-0.6-0.3-1.2-0.7-1.7-1c-12.5-6.6-25-13.3-37.5-19.9c-11.6-6.1-23.2-12.3-34.8-18.3
			c-1.8-0.9-2.5-1.8-1.9-4.2c2.2-8.8,4-17.8,6.1-26.6c0.4-1.6,0.4-3,0-4.7c-2.2-8.8-4-17.7-6.1-26.6c-0.5-2.1,0.5-2.7,1.9-3.4
			c14.5-7.6,29-15.1,43.4-22.7c5.7-3,11.4-6.2,17.1-9.3c5.7-2.3,11.1-5.6,16.5-8.5c4.6-2.4,4.6-2.6,5.2,2.7
			c0.7,5.5,1.2,11.1,1.8,16.6c0.1,1.3,0,2.5-0.7,3.8c-8.2,16.2-16.3,32.4-24.6,48.6c-0.6,1.2-0.2,1.6,0.2,2.3
			c8.1,16.3,16.2,32.6,24.3,48.8c0.5,1.1,1,2.1,0.9,3.4c-0.7,6.6-1.5,13.3-2.1,19.9c-0.2,2.1-0.9,2.4-2.5,1.5
			c-1.3-0.7-2.7-1.3-4.1-1.9C487.6,467.8,487.2,467.6,486.8,467.4z"/>
		<path fill="#D9D8D9" d="M262.1,594.7c0,45.1,0.1,90.2-0.1,135.3c-0.1,12,0,24-0.3,36c0,0.8,0.5,2-0.4,2.5
			c-1.1,0.5-1.3-0.9-1.8-1.5c-14.7-17.7-29.3-35.3-43.9-53c-6-7.2-12-14.3-17.8-21.7c-3.2-4-4.2-9.3-4.9-14.4
			c-0.4-2.8,2.3-5,3.7-7.3c7.9-12.9,15.9-25.7,23.9-38.5c13.4-21.4,26.7-42.8,40.1-64.2c0.4-0.7,0.7-2.1,1.7-1.8
			c1.2,0.3,0.6,1.7,0.6,2.6c0,8.7,0,17.3,0,26C262.6,594.7,262.4,594.7,262.1,594.7z"/>
		<path fill="#D8D8D8" d="M262.9,197.9c0,8.4,0,16.9,0,25.3c0,0.9,0.6,2.3-0.6,2.7c-1,0.3-1.3-1.1-1.7-1.8
			c-9.5-15-18.8-30.1-28.3-45.1c-12.8-20.3-25.5-40.6-38.4-60.8c-1.1-1.8-1.2-3.3-0.8-5.4c1.5-7.5,5.5-13.3,10.3-18.8
			c10.7-12.5,21.1-25.4,31.7-38.1c8.2-9.9,16.5-19.8,24.7-29.6c0.4-0.5,0.9-1.2,1.6-0.9c0.7,0.3,0.3,1.1,0.4,1.6c0.1,0.5,0,1,0,1.5
			c0.2,46.2,0.3,92.4,0.7,138.6C262.6,177.3,262.5,187.6,262.9,197.9z"/>
		<path fill="#D8D8D8" d="M152.2,550c0.1,1.2-0.3,1.9-0.7,2.6c-9.2,15.2-18.4,30.5-27.5,45.7c-1.2,2.1-2.1,2.1-3.6,0.3
			c-14.5-17.7-29-35.3-43.5-52.9c-1.1-1.3-1.3-2.6-0.7-4.1c7.7-20,15.3-40,23-59.9c5.5-14.5,11-28.9,16.5-43.4
			c0.3-0.9,0.4-2.3,1.5-2.4c1.4-0.1,1,1.5,1.3,2.3c7.9,26.1,15.7,52.2,23.6,78.2c3.3,10.8,6.5,21.6,9.7,32.5
			C152,549.4,152.2,549.9,152.2,550z"/>
		<path fill="#D8D8D8" d="M75.9,248.7c-0.1-1.4,0.3-2.1,0.9-2.8c5.6-6.6,11.1-13.2,16.6-19.9c9-10.8,18.1-21.5,27-32.4
			c1.7-2.1,2.6-1.7,3.7,0.2c9,15,18,29.9,27.1,44.9c0.9,1.5,1,2.8,0.5,4.5c-5.7,18.4-11.3,36.8-16.9,55.3
			c-5.4,17.8-10.7,35.5-16.1,53.3c-0.3,1-0.1,2.6-1.5,2.6c-1.3,0-1.3-1.5-1.7-2.5c-8.7-22.4-17.3-44.8-26-67.2
			c-4.4-11.3-8.7-22.7-13.1-34C76.3,249.9,76.1,249.2,75.9,248.7z"/>
		<path fill="#D8D8D8" d="M50.7,710.4c0-17.1-0.2-34.2,0.1-51.3c0.3-14.9,0.5-29.7,0.4-44.6c-0.1-8.5,3.3-15.7,6.1-23.1
			c5.2-13.9,10.6-27.8,15.9-41.7c1.3-3.5,1.7-3.7,4-0.9c11.2,13.5,22.3,27,33.4,40.6c3,3.6,5.9,7.4,9,10.9c1.5,1.7,1.5,3,0.3,5
			c-10.4,17.2-20.7,34.4-31,51.6c-11.8,19.8-23.7,39.5-35.5,59.3c-0.4,0.7-0.8,1.4-1.2,2c-0.4,0.6-0.7,1.7-1.6,1.3
			c-0.8-0.3-0.4-1.2-0.4-1.9c0-2.4,0-4.9,0-7.3C50.3,710.4,50.5,710.4,50.7,710.4z"/>
		<path fill="#D8D8D8" d="M50.4,158.3c0-21.5,0.1-42.9-0.1-64.4c0-5.7-0.2-11.4-0.3-17.1c0-1.1-0.7-2.9,0.6-3.2
			c1.2-0.4,1.6,1.5,2.2,2.4c10.3,17,20.5,34,30.8,51c12,19.9,24.1,39.7,36.1,59.6c1.4,2.2,1.4,3.6-0.4,5.7
			c-7.6,8.8-14.8,17.8-22.3,26.8c-5.8,7-11.6,13.9-17.4,20.8c-1.1,1.3-2.1,2.6-3.1,3.9c-1.3,1.7-2.1,1.6-2.9-0.6
			c-4-10.5-8.1-21-12.2-31.5c-2.9-7.5-5.7-15.1-8.7-22.5c-1.5-3.7-1.4-7.6-1.5-11.4c-0.3-6.5-0.1-13-0.1-19.5
			C50.9,158.3,50.7,158.3,50.4,158.3z"/>
		<path fill="#D8D8D8" d="M263.4,310.3c0,4,0,8.1,0,12.1c0,21.4,0.1,42.7,0.1,64.1c0,27.2-0.1,54.3-0.1,81.5c0,3.5-0.1,6.9-0.2,10.4
			c0,0.8,0.3,1.9-0.5,2.2c-1,0.4-1.4-0.8-1.9-1.4c-7.9-10.2-15.8-20.5-23.7-30.7c-3.4-4.4-6.7-8.8-10.2-13c-1.4-1.7-1.3-2.9-0.2-4.7
			c6.8-11.1,13.4-22.3,20.2-33.4c0.9-1.5,1-2.5-0.1-4.2c-6.9-11.2-13.6-22.6-20.5-33.9c-0.8-1.4-0.8-2.2,0.2-3.5
			c10.4-13.2,20.8-26.5,31.2-39.7c1.6-2,3.1-4,4.6-6C262.8,310.1,263.1,310.2,263.4,310.3z"/>
		<path fill="#D8D7D8" d="M190.2,676.7c-0.1,1.2-0.6,2.3-1.5,2.8c-1.2,0.7-1.9-0.4-2.6-1.3c-8.5-10.3-17-20.7-25.6-31
			c-10.3-12.5-20.6-24.9-30.8-37.3c-0.4-0.5-0.9-1.1-1.3-1.6c-1.3-2-4.3-3.3-4.1-5.9c0.2-2.2,2-4.3,3.2-6.3
			c8-13.3,16-26.6,23.9-39.9c0.4-0.6,0.7-1.2,1.5-1.2c1.3,0,1,1.3,1.3,2.1c4.9,16.1,9.6,32.3,14.5,48.4c7,23.3,14,46.6,21,69.9
			C189.9,675.7,190.1,676.2,190.2,676.7z"/>
		<path fill="#D8D7D8" d="M190.2,115.9c-1.2,4.2-2.3,8.2-3.5,12.1c-8.2,26.8-16.3,53.6-24.5,80.4c-2.6,8.7-5.2,17.4-7.9,26
			c-0.3,0.9-0.1,2.3-1.3,2.5c-1.2,0.2-1.5-1.2-1.9-1.9c-7.4-12.1-14.7-24.3-22-36.4c-1.4-2.3-2.6-4.7-4.2-6.9
			c-1-1.4-0.9-2.4,0.2-3.7c6.2-7.4,12.3-14.8,18.5-22.2c10.8-13,21.5-26.1,32.3-39.1c3.4-4.2,7-8.3,10.5-12.4
			c0.6-0.7,1.1-1.7,2.1-1.2C189.4,113.8,189.9,114.9,190.2,115.9z"/>
		<path fill="#D8D7D8" d="M415.4,395.1c-0.4,1.9-0.8,3.7-1.2,5.6c-1.7,7.5-3.5,15-5.1,22.5c-0.5,2.1-1.2,2.4-2.9,1.4
			c-13.3-7.1-26.7-14.2-40.1-21.2c-1.7-0.9-2.1-1.8-0.9-3.4c0.2-0.2,0.3-0.5,0.4-0.8c2.6-4.2,2.6-4.2-0.1-8.2c-1.3-2-1.4-3.1,1-4.3
			c12.9-6.6,25.8-13.4,38.7-20.2c3.2-1.7,3.3-1.7,4.1,1.9c2,8.4,3.9,16.8,5.8,25.1C415.2,394,415.3,394.5,415.4,395.1z"/>
		<path fill="#D8D7D8" d="M224,360c1,0.1,1.3,1.1,1.7,1.8c5.9,9.8,11.8,19.5,17.8,29.3c2.5,4.1,2.5,4.1-0.1,8.3
			c-5.9,9.9-11.9,19.7-17.8,29.7c-1.2,2.1-1.9,2.1-3.4,0.2c-8.4-10.9-16.8-21.6-25.3-32.4c-1.4-1.7-1.2-2.4,0.4-4.2
			c5.2-5.9,9.9-12.2,14.7-18.4c3.5-4.4,6.9-8.8,10.3-13.3C222.8,360.4,223.2,359.9,224,360z"/>
		<path fill="#D6D5D7" d="M51.6,247.1c0-16.8,0-33.5,0-50.3c0-0.8-0.5-2.1,0.6-2.3c0.9-0.2,1.2,1.1,1.5,2
			c6.2,16.2,12.5,32.4,18.8,48.5c0.7,1.7,0.6,3-0.5,4.4c-5.5,6.5-10.9,13.1-16.4,19.7c-0.7,0.8-1.4,2.2-2.5,1.6
			c-0.8-0.5-0.8-1.9-0.8-3.1c0-6.8,0-13.6,0-20.4C52,247.1,51.8,247.1,51.6,247.1z"/>
		<path fill="#D6D5D7" d="M51.6,582.5c0.5-19.3,0.7-38.2,0.7-57.2c0-1.6-0.3-3.8,1-4.4c1.3-0.6,2.1,1.6,3,2.7
			c5.1,6.1,10.1,12.4,15.3,18.4c1.4,1.6,1.6,2.9,0.8,4.8c-6.3,16.2-12.5,32.5-18.7,48.7c-0.3,0.8-0.5,2.1-1.4,2
			c-1.2-0.2-0.6-1.5-0.6-2.3C51.6,590.9,51.6,586.5,51.6,582.5z"/>
		<path fill="#D8D7D8" d="M265.3,273c-0.4-12.6,0.3-23.2-0.4-33.8c-0.1-0.9-0.4-2.3,0.6-2.7c1.1-0.4,1.5,1.1,2,1.8
			c6.9,10.8,13.7,21.6,20.5,32.5c0.8,1.3,0.9,2.4-0.2,3.8c-6.7,8.5-13.3,17.1-20,25.6c-0.5,0.6-1,1.8-2,1.3
			c-0.9-0.5-0.5-1.6-0.5-2.5C265.2,289.7,265.3,280.4,265.3,273z"/>
		<path fill="#D8D7D8" d="M265.3,522.5c0-10.2,0-20.4,0-30.5c0-0.8-0.4-1.8,0.4-2.2c1-0.5,1.5,0.7,2,1.3
			c6.8,8.7,13.5,17.5,20.4,26.2c1.1,1.4,0.4,2.4-0.3,3.5c-6.9,11-13.8,22.1-20.7,33.1c-0.4,0.6-0.6,1.8-1.6,1.4
			c-0.9-0.3-0.5-1.4-0.5-2.2c0-10.2,0-20.4,0-30.5C265.1,522.5,265.2,522.5,265.3,522.5z"/>
		<path fill="#D6D5D7" d="M107.7,394.9c1.1-3.8,2.3-7.5,3.4-11.2c1.8-5.8,3.5-11.6,5.3-17.4c0.2-0.7,0.1-2.1,1.3-2
			c1.1,0,1.2,1.2,1.5,2c3.2,8.1,6.1,16.4,9.5,24.4c1.3,3,1.4,5.4,0.1,8.5c-3.4,8.3-6.3,16.7-9.5,25.1c-0.3,0.9-0.5,2.3-1.7,2.1
			c-1-0.1-1-1.4-1.2-2.2c-2.8-9.3-5.6-18.5-8.4-27.8C107.9,395.9,107.8,395.4,107.7,394.9z"/>
		<path fill="#D6D5D7" d="M366.2,394.8c-1.2,1.9-2.2,4-3.6,5.5c-1.3,1.4-2.6-0.2-3.8-0.8c-2.4-1.2-4.7-2.5-7.1-3.8
			c-0.5-0.3-1.1-0.6-1-1.3c0.1-0.6,0.5-0.8,1-0.8c3.1-0.2,5.4-2.3,8-3.6c1.8-0.9,2.9-0.8,3.9,1.2
			C364.2,392.5,365.3,393.6,366.2,394.8z"/>
		<path fill="#6D4679" d="M387.4,150.3c-0.5,0.6-1,1.3-1.5,1.9c-0.5-0.1-0.9-0.3-1.2-0.8c0.5-0.5,1-1.1,1.5-1.6c0.3,0,0.6,0,0.9,0
			C387.1,149.9,387.3,150.1,387.4,150.3z"/>
		<path fill="#6E477A" d="M444.5,718.7c0.4,0.1,0.7,0.3,0.8,0.8C445.1,719.2,444.8,718.9,444.5,718.7z"/>
		<path fill="#6E477A" d="M387,149.7c-0.3,0-0.6,0-0.9,0c0.1-0.6,0.3-1.1,0.9-1.4C387,148.8,387,149.3,387,149.7z"/>
		<polygon fill="#6E477A" points="387.6,147.5 387.4,147.7 387.5,147.6 		"/>
		<path fill="#D9D8D9" d="M575.2,286.1c-1.7,27.6-3.1,55.2-5.4,82.8c-1.7,20.5-0.8,40.8,0.6,61.2c1.7,25.3,3.2,50.5,4.7,75.8
			c0,0.3,0,0.6,0,0.9c0,2.2,1.4,5.1-0.2,6.2c-1.4,1-3.5-1.3-5.3-2.2c-16.4-8.6-32.7-17.2-49.1-25.8c-2.5-1.3-4.4-3-5.8-5.8
			c-4.8-10.1-9.8-20-14.8-29.9c-1.1-2.3-1-4.5-0.7-6.8c1.6-15.4,3.3-30.7,4.6-46.1c0.6-6.2-1-12.3-1.6-18.5
			c-0.9-10.1-2-20.2-3.2-30.3c-0.3-2.7,0.1-5.1,1.3-7.6c5.1-9.8,10-19.8,15-29.7c0.7-1.5,1.7-2.6,3.2-3.3
			c18.2-9.5,36.3-18.9,54.5-28.4c1.8-0.9,2.6-0.8,2.3,1.6C575.3,282.2,575.3,284.2,575.2,286.1C575.2,286.1,575.2,286.1,575.2,286.1
			z"/>
		<path fill="#D9D8D9" d="M473,698.3c1.7-16.2,3.4-32.6,5.1-49c1.9-18.8,3.9-37.6,5.8-56.4c2-19.3,3.9-38.6,5.9-57.9
			c2-19.2,4-38.4,5.9-57.6c0.2-2.3,0.7-2.9,2.7-1.8c5.2,2.9,10.5,5.6,15.7,8.4c1.7,0.9,2.3,2.6,3.1,4.2c10.5,21,20.9,42.1,31.4,63.2
			c8.6,17.4,17.3,34.7,26,52.1c0.9,1.8,0.6,2.8-0.8,4.1c-26.4,24.5-52.7,49.1-79,73.6c-6.5,6-13,12.1-19.5,18.1
			c-0.6,0.6-1.3,1.4-2.2,0.9C472.7,699.8,472.9,699,473,698.3z"/>
		<path fill="#D9D8D9" d="M474.2,93c0.3,0.2,0.8,0.5,1.2,0.9c7.4,6.8,14.8,13.5,22.1,20.3c11.5,10.6,23,21.2,34.5,31.8
			c9.4,8.7,18.9,17.4,28.3,26.2c4.6,4.2,9,8.6,13.7,12.7c1.6,1.4,1.6,2.3,0.7,4c-5.5,10.9-10.9,21.8-16.4,32.7
			c-8.3,16.4-16.6,32.8-24.8,49.2c-5.7,11.3-11.4,22.7-17.1,34c-0.7,1.3-1.5,2.2-2.8,2.9c-5.2,2.6-10.4,5.3-15.5,8.1
			c-1.6,0.9-2.1,0.5-2.3-1.3c-1.2-12.2-2.5-24.5-3.8-36.7c-2.4-23.1-4.9-46.3-7.3-69.4c-1.4-13.5-2.7-27.1-4.1-40.6
			c-2.4-23.1-4.8-46.3-7.2-69.4c-0.1-1.3-0.2-2.6-0.2-4C473.2,93.8,473,93,474.2,93z"/>
		<path fill="#D8D7D8" d="M581.2,599.5c0,2-1.7,3.1-3.2,3.9c-1.6,0.8-1.8-1.3-2.3-2.3c-9.2-18.4-18.3-36.9-27.5-55.3
			c-9.1-18.3-18.3-36.7-27.4-55c-0.5-1-1.7-2.3-0.9-3.3c0.9-1.1,2,0.3,3,0.8c16.7,8.7,33.3,17.6,50,26.3c2.4,1.2,3.2,2.7,3.4,5.5
			c1.6,26.2,3.3,52.5,4.9,78.7C581.1,599,581.1,599.1,581.2,599.5z"/>
		<path fill="#D8D7D8" d="M581.1,193c-1.2,19.6-2.5,39.1-3.7,58.7c-0.4,7-0.9,14-1.2,21c-0.1,1.7-0.7,2.7-2.2,3.5
			c-16.8,8.7-33.6,17.5-50.3,26.2c-1.1,0.6-2.6,2-3.6,1c-1-1.1,0.5-2.5,1-3.7c12.7-25.4,25.4-50.7,38.2-76.1
			c5.5-10.9,11-21.8,16.5-32.6c0.5-1.1,0.8-2.9,2.5-2C579.8,189.8,581.3,190.8,581.1,193z"/>
		<path fill="#D8D7D8" d="M502.3,395.4c-1,9.3-1.9,18.3-2.8,27.4c-0.6,5.6-1.2,11.3-1.8,16.9c-0.1,0.6,0.2,1.6-0.6,1.8
			c-1,0.3-1.2-0.8-1.5-1.4c-7.2-14.5-14.4-29-21.7-43.5c-1.1-2.2,0.1-3.4,0.9-4.9c5.1-10.1,10.1-20.1,15.2-30.2
			c1.9-3.7,3.8-7.5,5.7-11.2c0.3-0.6,0.4-1.5,1.3-1.3c0.9,0.2,0.7,1.1,0.7,1.7c0.9,8.5,1.8,16.9,2.7,25.4
			C501,382.7,501.6,389.1,502.3,395.4z"/>
		<path fill="#D6D5D7" d="M469.7,82.2c-0.1,0.9,0.4,2-0.3,2.6c-0.8,0.7-1.6-0.3-2.2-0.8c-4.8-4.4-9.5-8.9-14.3-13.3
			c-1.2-1.1-1.5-2-0.3-3.5c3.9-4.8,7.6-9.7,11.4-14.6c0.5-0.6,1-1.4,1.8-1.1c0.8,0.2,0.7,1.1,0.8,1.8
			C467.8,62.8,468.7,72.5,469.7,82.2z"/>
		<path fill="#D6D5D7" d="M469.7,711.3c-1,10-2,19.7-2.9,29.5c-0.1,0.6-0.1,1.3-0.8,1.5c-0.6,0.2-1-0.3-1.4-0.8
			c-4.1-5.3-8.2-10.6-12.3-15.9c-1-1.2-0.5-1.9,0.4-2.7c4.7-4.4,9.4-8.8,14.1-13.1c0.7-0.6,1.4-2.1,2.5-1.4
			C470.3,709.1,469.6,710.5,469.7,711.3z"/>
		<path fill="#D6D5D7" d="M496.4,320.1c-0.2-0.7,0.2-1.6,1.5-2.2c4-2,7.9-4.2,11.9-6.3c0.9-0.5,2.1-1.2,2.8-0.3
			c0.6,0.8-0.4,1.9-0.8,2.7c-3.7,7.4-7.4,14.8-11.1,22.1c-0.4,0.8-0.7,2.3-1.7,2.1c-1.4-0.3-0.7-1.8-0.9-2.8
			C497.5,330.7,497,325.7,496.4,320.1z"/>
		<path fill="#D6D5D7" d="M499,452.3c0.7,0.1,0.8,0.8,1.1,1.3c4.1,8.2,8.3,16.4,12.4,24.6c0.3,0.6,0.7,1.4,0,2
			c-0.5,0.5-1.1,0-1.6-0.2c-4.3-2.2-8.6-4.5-13-6.7c-1.1-0.5-1.6-1.2-1.5-2.6c0.6-5.7,1.2-11.5,1.8-17.2
			C498.3,452.9,498.3,452.3,499,452.3z"/>
		<path fill="#D6D5D7" d="M581.7,611.6c-1.7-1.8-2.6-3.8-2.1-6.2c0.2-0.7,0.5-1.4,1.3-1.3c1,0,0.7,1,0.8,1.6
			C581.7,607.7,581.7,609.7,581.7,611.6z"/>
		<path fill="#D6D5D7" d="M580.5,187.3c-2.3-2.4,0.1-3.4,0.5-4.9C581.2,184,581.2,185.6,580.5,187.3z"/>
		<path fill="#6E477A" d="M486.8,467.4c0.4,0.2,0.8,0.5,1.3,0.7C487.5,468.1,487.1,467.9,486.8,467.4z"/>
		<path fill="#6E477A" d="M390.2,146.7c0,0.2-0.1,0.3-0.3,0.3C390,146.8,390.1,146.7,390.2,146.7z"/>
	</g>
</g>
<path fill="#D9D8D9" d="M62.3,242.8c-0.9-0.6-2.3-0.5-3.2,0.2c0.5-3.6-4.7-5.1-5.5-1.4c0,0,0,0,0,0.1c-0.2,0.2-0.3,0.4-0.5,0.7
	c-1.1,2.1-1.4,4.5-1,6.8c-0.5,3.9-0.1,7.8,3.2,10.4c2.7,2.2,5.3-2.2,3.4-4.7c0.6-0.6,1-1.4,1-2.2c0.1,0,0.3,0,0.4,0
	c1.5,0,2.9-1.4,2.8-3.1c0-0.3,0-0.6,0-0.9c0-0.1,0-0.1,0-0.2c0-0.1,0-0.1,0-0.2c0.1-0.3,0.1-0.6,0.2-0.9c0,0,0.3-1,0.1-0.4
	C63.9,245.4,63.7,243.7,62.3,242.8z"/>
<path fill="#D9D8D9" d="M58.8,173.6c-0.5-2-1-4-1.4-6c0-4.7,0-9.5,0-14.2c0-1.6-1.3-3.2-2.8-3.1c-4.8,0.4-4,6.2-3.8,10
	c0.1,2.6,0.5,5.3,0.9,7.9c0,3.1,0.1,6.3,0.1,9.4c0.1,3.9,5.8,3.9,5.7,0c0-0.2,0-0.4,0-0.6C58.6,176.3,59.2,175.1,58.8,173.6z"/>
</svg>
